<svg xmlns="http://www.w3.org/2000/svg" viewBox="0 0 32 32"><path d="M8.282 6.527l2.514 3.942c-2.33 1.463-3.431 3.529-4.134 5.785-2.326.221-1.5-4.322-1.659-5.373 0 0-2.945 5.92-.822 7.584 1.518 1.19 4.09 1.651 4.09 1.651l-3.268 4.146c2.224.748 7.17.825 7.17.825l2.837-4.416h2.054l2.837 4.417s4.946-.078 7.17-.826l-3.268-4.146s2.558-.477 4.09-1.651c1.964-1.506-.822-7.584-.822-7.584-.159 1.051.667 5.594-1.66 5.373-.701-2.257-1.803-4.322-4.134-5.785l2.514-3.942c-.98-1.003-2.247-1.753-3.34-1.576l-3.786 4.692h-1.257L11.622 4.95c-1.091-.177-2.358.573-3.34 1.576zm4.104 6.495c.63 1.175 1.797 3.073 1.797 3.073s-1.005.029-1.95.029c-.944 0-1.598-.05-1.598-.754s.322-2.348 1.75-2.348zm7.264 0c1.449 0 1.75 1.644 1.75 2.348 0 .705-.596.754-1.598.754a74.34 74.34 0 01-1.95-.029S19 14.197 19.65 13.022z"/></svg>
