<svg xmlns="http://www.w3.org/2000/svg" viewBox="0 0 67.733 67.733"><path fill="#45416b" d="M13.368 10.868l6.67 10.458C13.855 25.21 10.933 30.69 9.07 36.677c-6.173.587-3.981-11.467-4.403-14.257 0 0-7.814 15.706-2.182 20.122 4.03 3.16 10.852 4.383 10.852 4.383l-8.67 10.999c5.9 1.986 19.023 2.191 19.023 2.191l7.528-11.719h5.451l7.527 11.72s13.125-.206 19.024-2.192l-8.67-10.999s6.787-1.268 10.851-4.383c5.213-3.995-2.181-20.122-2.181-20.122-.42 2.79 1.771 14.844-4.403 14.257-1.861-5.988-4.784-11.467-10.969-15.35l6.67-10.46c-2.601-2.66-5.963-4.65-8.861-4.181L35.61 19.135h-3.335L22.229 6.685c-2.895-.468-6.257 1.522-8.86 4.183zM24.256 28.1c1.673 3.12 4.77 8.156 4.77 8.156s-2.667.075-5.173.075c-2.507 0-4.242-.13-4.242-2 0-1.869.854-6.231 4.645-6.231zm19.275 0c3.844 0 4.645 4.362 4.645 6.232s-1.583 1.999-4.242 1.999-5.174-.075-5.174-.075 3.044-5.036 4.771-8.156z"/></svg>