<?xml version="1.0" encoding="UTF-8" standalone="no"?>
<svg
   xmlns:dc="http://purl.org/dc/elements/1.1/"
   xmlns:cc="http://creativecommons.org/ns#"
   xmlns:rdf="http://www.w3.org/1999/02/22-rdf-syntax-ns#"
   xmlns:svg="http://www.w3.org/2000/svg"
   xmlns="http://www.w3.org/2000/svg"
   xmlns:sodipodi="http://sodipodi.sourceforge.net/DTD/sodipodi-0.dtd"
   xmlns:inkscape="http://www.inkscape.org/namespaces/inkscape"
   viewBox="0 0 512 512"
   version="1.1"
   id="svg963"
   sodipodi:docname="logo.svg"
   inkscape:version="1.0.2 (1.0.2+r75+1)">
  <metadata
     id="metadata969">
    <rdf:RDF>
      <cc:Work
         rdf:about="">
        <dc:format>image/svg+xml</dc:format>
        <dc:type
           rdf:resource="http://purl.org/dc/dcmitype/StillImage" />
        <dc:title></dc:title>
      </cc:Work>
    </rdf:RDF>
  </metadata>
  <defs
     id="defs967" />
  <sodipodi:namedview
     pagecolor="#ffffff"
     bordercolor="#666666"
     borderopacity="1"
     objecttolerance="10"
     gridtolerance="10"
     guidetolerance="10"
     inkscape:pageopacity="0"
     inkscape:pageshadow="2"
     inkscape:window-width="1595"
     inkscape:window-height="998"
     id="namedview965"
     showgrid="false"
     inkscape:zoom="1.6171875"
     inkscape:cx="188.9736"
     inkscape:cy="248.0719"
     inkscape:window-x="17"
     inkscape:window-y="28"
     inkscape:window-maximized="0"
     inkscape:current-layer="svg963" />
  <path
     fill="#8e8cc4"
     fill-opacity=".049"
     d="m 100.23062,86.41 50.796,79.644 c -47.087,29.58 -69.339998,71.313 -83.527998,116.907 -47.011,4.47 -30.318,-87.328 -33.532,-108.576 0,0 -59.508,119.611 -16.617,153.242 30.691,24.065 82.645003,33.38 82.645003,33.38 L 33.966622,444.77 c 44.933,15.125 144.871998,16.686 144.871998,16.686 l 57.33,-89.247 h 41.513 l 57.323,89.255 c 0,0 99.955,-1.569 144.88,-16.694 l -66.028,-83.764 c 0,0 51.688,-9.656 82.637,-33.38 39.7,-30.423 -16.61,-153.24 -16.61,-153.24 -3.198,21.247 13.488,113.046 -33.53,108.575 -14.174,-45.602 -36.434,-87.328 -83.537,-116.9 l 50.797,-79.659 c -19.809,-20.257 -45.412,-35.412 -67.482,-31.84 l -76.514,94.806 h -25.399 l -76.506,-94.814 c -22.047,-3.564 -47.651,11.59 -67.474,31.856 z m 82.919,131.232 c 12.74,23.76 36.326,62.113 36.326,62.113 0,0 -20.31,0.571 -39.395,0.571 -19.093,0 -32.306,-0.99 -32.306,-15.23 0,-14.234 6.504,-47.454 35.375,-47.454 z m 146.79,0 c 29.275,0 35.375,33.22 35.375,47.46 0,14.242 -12.055,15.224 -32.305,15.224 -20.25,0 -39.403,-0.57 -39.403,-0.57 0,0 23.182,-38.353 36.334,-62.114 z"
     id="path961"
     style="fill:#363963;fill-opacity:1" />
</svg>
