<svg viewBox="0 0 1000 1000" xmlns="http://www.w3.org/2000/svg"><path d="M500.146.073a500 500 0 1 0 0 1000 500 500 0 0 0 353.552-853.554A500 500 0 0 0 500.146.073Zm-29.538 152.452h59.068c26.36-.057 33.04 12.095 32.981 38.454v246.578h246.581c26.358-.058 38.513 6.625 38.457 32.983v59.06c.057 26.359-12.096 33.043-38.457 32.989H562.661v246.575c.057 26.358-6.624 38.512-32.981 38.455h-59.068c-26.36.057-33.04-12.097-32.981-38.455V562.587H191.05c-26.359.057-38.512-6.628-38.454-32.987v-59.06c-.058-26.36 12.095-33.042 38.455-32.985h246.577V190.979c-.06-26.359 6.621-38.514 32.98-38.454z" fill="#fff"/></svg>