<svg xmlns="http://www.w3.org/2000/svg" viewBox="0 0 1000 1000"><path fill="#fff" d="M477.78 4.825c-28.557-.063-41.722 13.104-41.657 41.662v388.35H47.77c-28.558-.062-41.725 13.104-41.662 41.663v44.235c-.063 28.559 13.103 41.727 41.662 41.666h388.355v388.351c-.065 28.558 13.1 41.725 41.658 41.662h44.242c28.557.062 41.722-13.105 41.66-41.662v-388.35h388.353c28.559.06 41.725-13.108 41.663-41.667V476.5c.061-28.558-13.106-41.724-41.663-41.662H563.682V46.487c.063-28.558-13.102-41.724-41.66-41.662z"/></svg>