<svg xmlns="http://www.w3.org/2000/svg" viewBox="0 0 1000 1000"><path d="M789.878 225.418c13.041-.029 23.62 10.55 23.59 23.592v160.906h160.907c13.041-.029 23.62 10.55 23.592 23.592v34.814c.029 13.042-10.55 23.622-23.592 23.594H813.467v160.906c.03 13.041-10.549 23.62-23.59 23.592H755.06c-13.041.028-23.62-10.551-23.591-23.592V491.916H570.562c-13.042.028-23.621-10.552-23.593-23.594v-34.814c-.028-13.041 10.552-23.62 23.593-23.592H731.47V249.01c-.029-13.041 10.55-23.62 23.59-23.592zm-459.188-.047c81.229 0 147.076 72.095 147.076 161.031S411.919 547.436 330.69 547.436c-81.228 0-147.078-72.097-147.078-161.034 0-88.936 65.85-161.032 147.078-161.03zm171.656 349.094c25.563-.045 49.038 6.825 69.032 27.379 60.93 62.638 84.533 114.385 84.533 202.97H6.108c0-88.585 23.602-140.331 84.533-202.97 60.93-62.638 154.198 23.06 240.368 23.06 57.894 0 118.995-50.346 171.337-50.44z" fill="#fff"/></svg>