<svg version="1.1" viewBox="0 0 1e3 1e3" xml:space="preserve" xmlns="http://www.w3.org/2000/svg"><path d="m500 26.57c-169.2 78.81-288.1 179.5-396.3 186.6 15.27 362 130.8 632 396.3 764 265.5-132.1 381-402 396.3-764-108.3-7.076-227.2-107.7-396.3-186.6zm-42.68 189.1 86.82 9e-3 10.04 77.75c17.66 4.716 34.58 11.67 50.31 20.8l62.16-47.89 61.43 61.43-47.88 62.04c9.045 15.6 16.06 32.53 20.8 50.31l77.62 10.22-9e-3 86.82-77.76 10.04c-4.716 17.78-11.75 34.71-20.8 50.31l47.89 62.03-61.43 61.43-62.03-47.88c-15.6 9.045-32.53 16.06-50.31 20.8l-10.05 77.76-86.82-9e-3 -10.09-77.76c-17.9-4.716-34.71-11.77-50.31-20.8l-62.03 47.89-61.43-61.43 47.89-62.16c-9.142-15.84-16.13-32.65-20.8-50.3l-77.76-10.05 0.0111-86.82 77.75-10.09c4.716-17.53 11.68-34.47 20.8-50.19l-47.89-62.16 61.43-61.43 62.16 47.89c15.72-9.13 32.65-16.12 50.19-20.8zm43.53 180.3c-53.93 0-97.58 43.66-97.59 97.59 0 53.93 43.65 97.58 97.59 97.59 53.93 0 97.58-43.65 97.59-97.59 0-53.93-43.65-97.58-97.59-97.59z" fill="#fff" stroke-width="1.137"/></svg>
