<svg viewBox="0 0 1000 1000" xmlns="http://www.w3.org/2000/svg"><path d="M500 2.254c-131.983 0-258.635 52.459-351.96 145.785C54.712 241.365 2.253 368.017 2.253 500s52.459 258.635 145.785 351.96C241.365 945.288 368.017 997.747 500 997.747s258.635-52.459 351.96-145.785C945.288 758.635 997.747 631.983 997.747 500s-52.459-258.635-145.785-351.96C758.635 54.712 631.983 2.253 500 2.253Z" fill="#20ba33"/><path d="M747.635 256.67c-5.601.301-11.276 1.86-16.389 4.847-120.98 70.308-224.1 158.195-311.896 275.158l-83.823-113.84 1.046 1.609c-11.174-19.587-31.727-28.824-50.332-27.127-18.604 1.697-35.545 11.498-49.238 24.941-13.693 13.443-24.353 30.951-27.648 50.778-3.298 19.828 2.173 42.35 19.071 59.448l-.295-.306 193.39 206.064c7.5 7.987 20.477 6.447 25.945-3.08 82.252-143.355 193.402-276.517 327.924-392.079a16.41 16.41 0 0 0 1.087-1.018c18.018-18.574 18.476-44.602 8.809-62.304-4.834-8.85-12.066-16.303-21.702-20.39-4.819-2.045-10.347-3-15.949-2.7z" fill="#fff"/></svg>