<svg version="1.1" viewBox="0 0 1e3 1e3" xmlns="http://www.w3.org/2000/svg"><path d="m488.8 44.36c-93.33 0-174.2 33.48-240.1 99.46-66.34 66.34-100 147.5-100 241.2v233.2c0 93.34 33.67 174.2 100 240.2 65.97 66.32 147 100.1 240.6 100.5h0.02148 159.4c14.35 0 27.74-5.727 37.74-16.06 10.36-10 16.09-23.41 16.09-37.77 0-14.43-5.734-27.96-16.07-38.29-10.06-10.06-23.44-15.54-37.76-15.54h-159.3c-64.98-0.3402-119.3-22.99-165.2-68.92-45.55-45.55-67.86-99.63-67.86-164.6v-232.7c0-64.97 22.47-119.2 68.39-165.2 45.56-45.56 99.47-67.86 164.1-67.86 64.96 0 119.2 22.3 165.1 67.84 45.37 45.71 67.88 103.5 67.88 175.8v11.34h0.5312v168.7c0 29.57-9.912 53.55-30.68 74.32l-0.1875 0.1875-0.1777 0.1953c-15.58 17.1-40.1 27.75-75.62 30.82h-126.3c-17.87 0-31.94-5.828-44.57-18.46-12.63-12.63-18.46-26.7-18.46-44.57v-233.2c0-17.87 5.83-31.94 18.46-44.57 12.63-12.63 26.7-18.46 44.57-18.46 17.87 0 31.94 5.83 44.57 18.46 12.63 12.63 18.46 26.7 18.46 44.57v222.6c0 14.32 5.428 27.75 15.37 38.12l0.166 0.1758 0.1758 0.166c10.37 9.941 23.8 15.37 38.12 15.37 14.32 0 27.7-5.475 37.76-15.54 10.34-10.34 16.07-23.86 16.07-38.3v-222.6c0-46.59-17.02-87.58-50.06-120.6-33.05-33.05-74.04-50.06-120.6-50.06-46.59 0-87.58 17.02-120.6 50.06-33.05 33.05-50.06 74.04-50.06 120.6v233.2c0 46.59 17.02 87.58 50.06 120.6 33.05 33.05 74.04 50.07 120.6 50.07h127.5c58.27 0 109.2-21.09 150.4-62.28 41.54-41.54 62.81-92.61 62.81-150.9v-212.7h-0.8066c-2.815-82.23-36.22-155.9-99.17-219.2l-0.02149-0.02343-0.02343-0.02149c-66.34-65.97-147.3-99.44-240.7-99.44h-0.5312z" fill="#fff"/></svg>
