<svg version="1.1" viewBox="0 0 1e3 1e3" xmlns="http://www.w3.org/2000/svg"><path d="m493.1 51.84c-110.6 1.364-220.1 43.42-304.4 123.9-149.9 143.1-182.2 371.2-77.95 550.3 104.3 179.1 318.6 263.6 517 203.8a56.69 56.69 0 0 0 37.93-70.63 56.69 56.69 0 0 0-70.63-37.93c-148.8 44.82-308.2-18-386.4-152.3-78.2-134.3-54.17-303.9 58.25-411.2 112.4-107.3 283-123.4 413.5-38.99 130.5 84.38 185.8 246.5 134.1 393.1a56.7 56.7 0 0 0-0.291 0.8457c-2.925 8.725-5.391 9.988-10.91 12.69-5.515 2.697-15.14 3.664-16.67 3.559-10.68-0.7334-15.54-2.219-25.83-20.86-10.28-18.64-19.84-55.35-19.84-108.2a56.69 56.69 0 0 0-0.1484-2.084c-1.549-131.7-109.9-239.2-242-239.2-133 1e-5 -242 109-242 242 1e-5 133 109 242 242 242 65.65 1e-5 125.4-26.6 169.2-69.5 25.05 38.24 65.94 65.82 110.9 68.9 21.81 1.497 46.93-1.459 74.25-14.82 27.27-13.34 55.68-40.21 68.52-78.32 68.57-195.3-5.818-412.9-179.7-525.3-76.14-49.24-162.9-72.79-248.9-71.73zm5.771 320.1c71.73 0 128.7 56.93 128.7 128.7 0 71.73-56.93 128.7-128.7 128.7-71.73-1e-5 -128.7-56.93-128.7-128.7-1e-5 -71.73 56.93-128.7 128.7-128.7z" fill="#fff"/></svg>
