<svg xmlns="http://www.w3.org/2000/svg" viewBox="0 0 31.5 31.5"><path d="M10.994 4.996c-.984.04-2.059.721-2.915 1.597l2.507 3.932c-2.324 1.46-3.423 3.52-4.123 5.77-2.321.222-.707-4.31-.866-5.36 0 0-3.727 5.906-1.61 7.566 1.515 1.188 4.08 1.648 4.08 1.648l-3.26 4.135c2.218.746 7.152.823 7.152.823l2.83-4.405h1.98l2.83 4.405s4.934-.077 7.152-.823l-3.26-4.135s2.565-.46 4.08-1.648c2.118-1.66-1.709-7.565-1.709-7.565-.158 1.049 1.554 5.58-.766 5.36-.7-2.251-1.8-4.311-4.124-5.771l2.508-3.932c-.857-.876-1.932-1.558-2.916-1.597-.14-.005-.28.002-.416.024L16.371 9.7h-1.184L11.41 5.02a2.083 2.083 0 0 0-.416-.024zm1.474 8.47c1.747 0 1.497 2.672 1.497 2.672s-1.003.028-1.945.028c-.942 0-1.594-.05-1.594-.752 0-.703.295-1.948 2.042-1.948zm6.622 0c1.747 0 2.043 1.245 2.043 1.948 0 .703-.653.752-1.595.752a80.32 80.32 0 0 1-1.945-.028s-.25-2.672 1.497-2.672z" fill="#fff" style="stroke-width:.674462"/></svg>