<svg viewBox="0 0 1000 1000" xmlns="http://www.w3.org/2000/svg"><path d="M500.196 43.515a24.136 24.136 0 0 0-21.643 13.446l-128.435 260.06-287.043 41.632c-19.792 2.873-27.702 27.193-13.388 41.16l207.645 202.51-49.106 285.86c-3.382 19.712 17.304 34.749 35.01 25.45L500 778.73l256.695 135.038c17.702 9.306 38.393-5.719 35.023-25.431l-48.956-285.885 207.752-202.402c14.323-13.958 6.427-38.282-13.364-41.168L650.13 317.1 521.833 56.97a24.136 24.136 0 0 0-21.637-13.455z" fill="#fff" style="stroke-width:.985872"/></svg>