<svg version="1.1" viewBox="0 0 1e3 1e3" xmlns="http://www.w3.org/2000/svg"><path d="m500.2 43.52c-9.185-0.0013-17.57 5.211-21.64 13.45l-128.4 260.1-287 41.63c-19.79 2.873-27.7 27.19-13.39 41.16l207.6 202.5-49.11 285.9c-3.382 19.71 17.3 34.75 35.01 25.45l256.8-134.9 256.7 135c17.7 9.306 38.39-5.718 35.02-25.43l-48.96-285.9 207.8-202.4c14.32-13.96 6.428-38.28-13.36-41.17l-287-41.78-128.3-260.1c-4.065-8.237-12.45-13.45-21.64-13.46zm-0.0388 202c5.349 2e-3 10.23 3.039 12.6 7.835l74.71 151.5 167.1 24.33c11.53 1.681 16.12 15.85 7.783 23.98l-121 117.9 28.51 166.5c1.963 11.48-10.09 20.23-20.4 14.81l-149.5-78.64-149.5 78.56c-10.31 5.415-22.36-3.342-20.39-14.82l28.6-166.5-120.9-117.9c-8.336-8.134-3.729-22.3 7.797-23.97l167.2-24.24 74.79-151.4c2.369-4.796 7.255-7.832 12.6-7.831z" fill="#fff"/></svg>
