<?xml version="1.0" encoding="UTF-8"?>
<svg version="1.1" viewBox="0 0 1e3 1e3" xml:space="preserve" xmlns="http://www.w3.org/2000/svg"><path d="m214.63 46c-45.194 0-98.642 66.415-113.18 86.457-20.043 25.54-65.234 92.747-65.234 155.23 0 58.95 39.688 135.19 72.699 188.24 44.01 71.52 105.71 148.94 172.91 217.71l21.225 21.221h0.7832c69.17 66.8 146.19 127.72 218.11 171.73 53.05 33.403 129.69 72.701 189.42 72.701l2e-3 0.0137c63.667 0 130.47-45.194 157.59-63.664 20.043-15.72 86.457-67.99 86.457-113.18 0-18.471-12.181-38.511-39.689-64.449-23.973-23.185-53.447-45.194-74.668-59.734-27.902-19.65-57.376-37.726-82.92-50.695-40.477-22.007-57.768-23.971-67.986-23.971-19.256 0-35.762 10.217-49.516 29.473-9.432 12.968-15.72 29.478-23.188 44.018-3.536 9.825-11.002 26.722-16.504 33.01-9.43-1.965-31.439-12.183-69.166-37.727-36.16-23.972-74.671-55.018-103.36-82.527-28.688-28.692-59.735-67.204-83.707-102.18-25.937-38.905-34.977-60.912-37.727-69.951 6.288-4.715 22.794-11.788 33.012-16.504 15.72-6.288 31.048-12.97 44.016-22.008 20.042-13.754 30.26-30.262 30.26-49.518 0-10.217-2.7507-27.508-23.971-67.984-12.969-24.758-31.439-54.231-50.695-81.74-14.54-21.221-37.338-50.696-60.521-74.668-25.938-27.51-45.979-39.301-64.449-39.301zm429.29-29.271c-13.861 0-27.154 5.5069-36.954 15.309-20.409 20.409-20.409 53.498 0 73.908l106.51 106.51-106.51 106.51c-20.409 20.409-20.409 53.498 0 73.908 20.41 20.41 53.5 20.41 73.91 0l106.51-106.51 106.51 106.51c20.409 20.409 53.498 20.409 73.908 0 20.409-20.409 20.409-53.498 0-73.908l-106.51-106.51 106.51-106.51c20.409-20.409 20.409-53.498 0-73.908-20.41-20.41-53.5-20.41-73.91 0l-106.51 106.51-106.51-106.51c-9.8007-9.8017-23.094-15.309-36.954-15.309z" fill="#E64545"/></svg>
