<svg xmlns="http://www.w3.org/2000/svg" xml:space="preserve" viewBox="0 0 1000 1000"><path fill="#fff" d="M214.63 46c-45.194 0-98.64 66.415-113.18 86.457-20.043 25.54-65.236 92.746-65.236 155.23 0 58.95 39.69 135.19 72.701 188.24 44.01 71.52 105.71 148.94 172.91 217.71l21.223 21.221h.785c69.17 66.8 146.19 127.72 218.11 171.73 53.05 33.403 129.69 72.701 189.42 72.701l.002.014c63.667 0 130.47-45.194 157.59-63.664 20.043-15.72 86.457-67.99 86.457-113.18 0-18.471-12.182-38.512-39.69-64.45-23.973-23.185-53.446-45.193-74.667-59.733-27.902-19.65-57.376-37.726-82.92-50.695-40.477-22.007-57.768-23.971-67.986-23.971-19.256 0-35.762 10.217-49.516 29.473-9.432 12.968-15.72 29.476-23.188 44.016-3.536 9.825-11.002 26.722-16.504 33.01-9.43-1.965-31.439-12.183-69.166-37.727-36.16-23.972-74.67-55.018-103.36-82.527-28.688-28.692-59.735-67.204-83.707-102.18-25.937-38.905-34.977-60.912-37.727-69.951 6.288-4.715 22.794-11.788 33.012-16.504 15.72-6.288 31.046-12.97 44.014-22.008 20.042-13.754 30.26-30.26 30.26-49.516 0-10.217-2.75-27.51-23.97-67.986-12.969-24.758-31.44-54.231-50.696-81.74-14.54-21.221-37.336-50.696-60.52-74.668-25.938-27.51-45.98-39.3-64.45-39.3zm281.13 1.605a45 45 0 0 0-45 45 45 45 0 0 0 45 45 364.913 364.913 0 0 1 258.09 106.91 364.937 364.937 0 0 1 106.91 258.09 45 45 0 0 0 45 45 45 45 0 0 0 45-45c0-120.66-47.951-236.42-133.27-321.73-85.317-85.317-201.08-133.27-321.73-133.27zm0 153.7a45 45 0 0 0-45 45 45 45 0 0 0 45 45c117.23 0 211.3 94.07 211.3 211.3a45 45 0 0 0 45 45 45 45 0 0 0 45-45c0-165.87-135.43-301.3-301.3-301.3z"/></svg>