<?xml version="1.0" encoding="UTF-8"?>
<svg version="1.1" viewBox="0 0 1e3 1e3" xml:space="preserve" xmlns="http://www.w3.org/2000/svg"><path d="m900 60a40 40 0 0 0-28.285 11.715l-800 800a40 40 0 0 0 0 56.57 40 40 0 0 0 56.57 0l800-800a40 40 0 0 0 0-56.57 40 40 0 0 0-28.285-11.715zm-809.45 120.38c-26.795 0-68.111 43.324-68.111 72.613v494.07c0 19.06 17.523 43.875 37.127 59.016l619.01-619.01c-7.248-4.1131-14.438-6.6894-20.797-6.6894zm858.93 90.459c-3.8964 0.40909-7.6634 1.6316-11.057 3.5898l-161.37 82.861-462.39 462.39h343.12c26.795 0 68.111-43.328 68.111-72.617v-130.98l212.53 109.13c18.639 10.757 41.934-2.6932 41.938-24.213v-402.37c-3e-3 -16.595-14.376-29.536-30.879-27.803z" fill="#FF5B5B"/></svg>
