<?xml version="1.0" encoding="UTF-8"?>
<svg version="1.1" viewBox="0 0 1e3 1e3" xmlns="http://www.w3.org/2000/svg">
 <path d="m214.51 847.69c22.334 22.431 35.368 22.431 57.702-3e-3l228.1-228.1 229.37 229.37c22.334 22.431 34.104 21.165 56.438-1.2681l62.07-62.07c22.434-22.335 23.704-34.104 1.2708-56.441l-229.37-229.37 228.1-228.1c22.435-22.333 22.438-35.368 3e-3 -57.701l-62.074-62.076c-22.335-22.431-35.369-22.429-57.705 0l-228.1 228.11-228.11-228.1c-22.337-22.431-35.374-22.429-57.71 3e-3l-62.069 62.07c-22.431 22.336-22.431 35.372-1.1e-4 57.706l228.11 228.11-228.11 228.1c-22.433 22.334-22.434 35.367-1.8e-4 57.703z" fill="#fff" stroke-width=".89617"/>
</svg>
