<svg xmlns="http://www.w3.org/2000/svg" viewBox="0 0 1000 1000"><path d="M939.507 380.294a502.146 367.324 0 01.786 11.475 502.146 367.324 0 01-502.147 367.324 502.146 367.324 0 01-81.133-5.127 370.727 310.994 0 00259.616 89.38 370.727 310.994 0 00129.56-20.017l238.37 134.01-70.608-239.793a370.727 310.994 0 0073.404-185.195 370.727 310.994 0 00-47.848-152.057z" fill="#fff"/><path d="M440.473 53.883A420.736 310.994 0 0019.736 364.877a420.736 310.994 0 0083.307 185.197L22.911 789.867l270.525-134.01a420.736 310.994 0 00147.037 20.014 420.736 310.994 0 00420.736-310.994A420.736 310.994 0 00440.473 53.883z" fill="#fff"/></svg>