<svg version="1.1" viewBox="0 0 1e3 1e3" xmlns="http://www.w3.org/2000/svg"><path d="m841.6 108.3c17.62 29.86 27.94 64.35 27.94 100.9v408c0 23.82-7.308 49.07-18.95 72.11h30.98c57.64 0 104-46.66 104-104.6v-371.8c0-57.96-46.4-104.6-104-104.6zm7.637 583.7c-15.1 28.77-37.12 53.7-61.77 66.63-45 23.61-83.8 23.53-118.5 23.53h-19.27l204.2 192.2zm-721.7-587.4c-57.64 0-104 46.66-104 104.6v371.8c0 57.96 46.4 104.6 104 104.6h32.38l-4.695 285.1 302.7-285.1h211c57.64 0 104-46.66 104-104.6v-371.8c0-57.96-46.4-104.6-104-104.6z" fill="#fff"/></svg>
