<svg xmlns="http://www.w3.org/2000/svg" xml:space="preserve" viewBox="0 0 1000 1000"><g stroke-linecap="round" stroke-linejoin="round" stroke-width="70.433" opacity=".05"><path fill="#e9e9e9" d="M63.352 955.75a29.482 29.482 0 0 1-29.482 29.482A29.482 29.482 0 0 1 4.388 955.75a29.482 29.482 0 0 1 29.482-29.482 29.482 29.482 0 0 1 29.482 29.482z"/><path fill="#fff" d="M92.207 930.93h77.968c6.094 0 11 4.906 11 11s-4.906 11-11 11H92.207c-6.094 0-11-4.906-11-11s4.906-11 11-11z"/><path fill="#777780" d="M200.597 935.46h147.33c4.432 0 8 3.568 8 8s-3.568 8-8 8h-147.33c-4.432 0-8-3.568-8-8s3.568-8 8-8z"/><path fill="#dfdfe6" d="M456.387 964.76h32.854c6.094 0 11 4.906 11 11s-4.906 11-11 11h-32.854c-6.094 0-11-4.906-11-11s4.906-11 11-11zm-90 0h59.938c6.094 0 11 4.906 11 11s-4.906 11-11 11h-59.938c-6.094 0-11-4.906-11-11s4.906-11 11-11zm-64 0h33.938c6.094 0 11 4.906 11 11s-4.906 11-11 11h-33.938c-6.094 0-11-4.906-11-11s4.906-11 11-11zm-100 0h69.938c6.094 0 11 4.906 11 11s-4.906 11-11 11h-69.938c-6.094 0-11-4.906-11-11s4.906-11 11-11zm-110 0h77.938c6.094 0 11 4.906 11 11s-4.906 11-11 11H92.387c-6.094 0-11-4.906-11-11s4.906-11 11-11z"/><path fill="#8b8b8b" d="M63.352 811.75c0 16.283-13.2 29.482-29.482 29.482s-29.482-13.2-29.482-29.482c0-16.283 13.2-29.482 29.482-29.482s29.482 13.2 29.482 29.482z"/><path fill="#b2b2b2" d="M92.207 786.93h157.97c6.094 0 11 4.906 11 11s-4.906 11-11 11H92.207c-6.094 0-11-4.906-11-11s4.906-11 11-11z"/><path fill="#777780" d="M280.597 791.46h147.33c4.432 0 8 3.568 8 8s-3.568 8-8 8h-147.33c-4.432 0-8-3.568-8-8s3.568-8 8-8z"/><path fill="#dfdfe6" d="M838.387 863.5h73.938c6.094 0 11 4.906 11 11s-4.906 11-11 11h-73.938c-6.094 0-11-4.906-11-11s4.906-11 11-11zm-64 0h33.938c6.094 0 11 4.906 11 11s-4.906 11-11 11h-33.938c-6.094 0-11-4.906-11-11s4.906-11 11-11zm-148 0h117.94c6.094 0 11 4.906 11 11s-4.906 11-11 11h-117.94c-6.094 0-11-4.906-11-11s4.906-11 11-11zm-126 0h96.854c6.094 0 11 4.906 11 11s-4.906 11-11 11h-96.854c-6.094 0-11-4.906-11-11s4.906-11 11-11zm-134 0h103.94c6.094 0 11 4.906 11 11s-4.906 11-11 11h-103.94c-6.094 0-11-4.906-11-11s4.906-11 11-11zm-64 0h33.938c6.094 0 11 4.906 11 11s-4.906 11-11 11h-33.938c-6.094 0-11-4.906-11-11s4.906-11 11-11zm-144 0h113.94c6.094 0 11 4.906 11 11s-4.906 11-11 11h-113.94c-6.094 0-11-4.906-11-11s4.906-11 11-11zm-66 0h33.938c6.094 0 11 4.906 11 11s-4.906 11-11 11H92.387c-6.094 0-11-4.906-11-11s4.906-11 11-11zM546.387 820.44h81.938c6.094 0 11 4.906 11 11s-4.906 11-11 11h-81.938c-6.094 0-11-4.906-11-11s4.906-11 11-11zm-74 0h44.854c6.094 0 11 4.906 11 11s-4.906 11-11 11h-44.854c-6.094 0-11-4.906-11-11s4.906-11 11-11zm-102 0h71.938c6.094 0 11 4.906 11 11s-4.906 11-11 11h-71.938c-6.094 0-11-4.906-11-11s4.906-11 11-11zm-60 0h29.938c6.094 0 11 4.906 11 11s-4.906 11-11 11h-29.938c-6.094 0-11-4.906-11-11s4.906-11 11-11zm-102 0h71.938c6.094 0 11 4.906 11 11s-4.906 11-11 11h-71.938c-6.094 0-11-4.906-11-11s4.906-11 11-11zm-116 0h83.938c6.094 0 11 4.906 11 11s-4.906 11-11 11H92.387c-6.094 0-11-4.906-11-11s4.906-11 11-11z"/><path fill="#dcdcdc" d="M63.352 710.99c0 16.283-13.2 29.482-29.482 29.482s-29.482-13.2-29.482-29.482c0-16.283 13.2-29.482 29.482-29.482s29.482 13.2 29.482 29.482z"/><path fill="#fff" d="M92.207 686.17h119.97c6.094 0 11 4.906 11 11s-4.906 11-11 11H92.207c-6.094 0-11-4.906-11-11s4.906-11 11-11z"/><path fill="#777780" d="M242.597 690.7h147.33c4.432 0 8 3.568 8 8s-3.568 8-8 8h-147.33c-4.432 0-8-3.568-8-8s3.568-8 8-8z"/><path fill="#dfdfe6" d="M392.387 719.47h119.94c6.094 0 11 4.906 11 11s-4.906 11-11 11h-119.94c-6.094 0-11-4.906-11-11s4.906-11 11-11zm-76 0h45.938c6.094 0 11 4.906 11 11s-4.906 11-11 11h-45.938c-6.094 0-11-4.906-11-11s4.906-11 11-11zm-50 0h19.938c6.094 0 11 4.906 11 11s-4.906 11-11 11h-19.938c-6.094 0-11-4.906-11-11s4.906-11 11-11zm-174 0h141.94c6.094 0 11 4.906 11 11s-4.906 11-11 11H92.387c-6.094 0-11-4.906-11-11s4.906-11 11-11z"/><path fill="#757575" d="M63.352 609.1c0 16.283-13.2 29.482-29.482 29.482S4.388 625.382 4.388 609.1c0-16.283 13.2-29.482 29.482-29.482s29.482 13.2 29.482 29.482z"/><path fill="#b2b2b2" d="M92.207 584.28h157.97c6.094 0 11 4.906 11 11s-4.906 11-11 11H92.207c-6.094 0-11-4.906-11-11s4.906-11 11-11z"/><path fill="#777780" d="M280.597 588.81h147.33c4.432 0 8 3.568 8 8s-3.568 8-8 8h-147.33c-4.432 0-8-3.568-8-8s3.568-8 8-8z"/><path fill="#dfdfe6" d="M618.387 617.47h100.85c6.094 0 11 4.906 11 11s-4.906 11-11 11h-100.85c-6.094 0-11-4.906-11-11s4.906-11 11-11zm-48 0h17.938c6.094 0 11 4.906 11 11s-4.906 11-11 11h-17.938c-6.094 0-11-4.906-11-11s4.906-11 11-11zm-250 0h219.94c6.094 0 11 4.906 11 11s-4.906 11-11 11h-219.94c-6.094 0-11-4.906-11-11s4.906-11 11-11zm-172 0h141.94c6.094 0 11 4.906 11 11s-4.906 11-11 11h-141.94c-6.094 0-11-4.906-11-11s4.906-11 11-11zm-56 0h23.938c6.094 0 11 4.906 11 11s-4.906 11-11 11H92.387c-6.094 0-11-4.906-11-11s4.906-11 11-11z"/><g opacity="1"><path fill="#dfdfdf" d="M63.352 272.99c0 16.283-13.2 29.482-29.482 29.482s-29.482-13.2-29.482-29.482c0-16.283 13.2-29.482 29.482-29.482s29.482 13.2 29.482 29.482z"/><path fill="#fff" d="M92.207 248.17h79.968c6.094 0 11 4.906 11 11s-4.906 11-11 11H92.207c-6.094 0-11-4.906-11-11s4.906-11 11-11z"/><path fill="#777780" fill-opacity=".998" d="M202.597 252.7h147.33c4.432 0 8 3.568 8 8s-3.568 8-8 8h-147.33c-4.432 0-8-3.568-8-8s3.568-8 8-8z"/><path fill="#898989" d="M93.737 321.43h428.27c6.648 0 12 5.352 12 12v203.85c0 6.648-5.352 12-12 12H93.737c-6.648 0-12-5.352-12-12V333.43c0-6.648 5.352-12 12-12z"/><path fill="#dfdfe6" d="M288.387 281.53h31.938c6.094 0 11 4.906 11 11s-4.906 11-11 11h-31.938c-6.094 0-11-4.906-11-11s4.906-11 11-11zm-136 0h105.94c6.094 0 11 4.906 11 11s-4.906 11-11 11h-105.94c-6.094 0-11-4.906-11-11s4.906-11 11-11zm-60 0h27.938c6.094 0 11 4.906 11 11s-4.906 11-11 11H92.387c-6.094 0-11-4.906-11-11s4.906-11 11-11z" opacity="1"/></g><path fill="#939393" d="M63.352 83.16c0 16.283-13.2 29.482-29.482 29.482S4.388 99.442 4.388 83.16c0-16.283 13.2-29.482 29.482-29.482s29.482 13.2 29.482 29.482z"/><path fill="#b2b2b2" d="M92.207 58.34h157.97c6.094 0 11 4.906 11 11s-4.906 11-11 11H92.207c-6.094 0-11-4.906-11-11s4.906-11 11-11z"/><path fill="#777780" d="M280.597 62.87h147.33c4.432 0 8 3.568 8 8s-3.568 8-8 8h-147.33c-4.432 0-8-3.568-8-8s3.568-8 8-8z"/><g fill="#dfdfe6"><path d="M828.387 177.51h29.938c6.094 0 11 4.906 11 11s-4.906 11-11 11h-29.938c-6.094 0-11-4.906-11-11s4.906-11 11-11zm-172 0h141.94c6.094 0 11 4.906 11 11s-4.906 11-11 11h-141.94c-6.094 0-11-4.906-11-11s4.906-11 11-11zm-72 0h41.938c6.094 0 11 4.906 11 11s-4.906 11-11 11h-41.938c-6.094 0-11-4.906-11-11s4.906-11 11-11zm-152 0h122.85c6.094 0 11 4.906 11 11s-4.906 11-11 11h-122.85c-6.094 0-11-4.906-11-11s4.906-11 11-11zm-88 0h57.938c6.094 0 11 4.906 11 11s-4.906 11-11 11h-57.938c-6.094 0-11-4.906-11-11s4.906-11 11-11zm-64 0h33.938c6.094 0 11 4.906 11 11s-4.906 11-11 11h-33.938c-6.094 0-11-4.906-11-11s4.906-11 11-11zm-140 0h109.94c6.094 0 11 4.906 11 11s-4.906 11-11 11h-109.94c-6.094 0-11-4.906-11-11s4.906-11 11-11zm-48 0h15.938c6.094 0 11 4.906 11 11s-4.906 11-11 11H92.387c-6.094 0-11-4.906-11-11s4.906-11 11-11zM482.387 134.41h44.854c6.094 0 11 4.906 11 11s-4.906 11-11 11h-44.854c-6.094 0-11-4.906-11-11s4.906-11 11-11zm-114 0h83.938c6.094 0 11 4.906 11 11s-4.906 11-11 11h-83.938c-6.094 0-11-4.906-11-11s4.906-11 11-11zm-52 0h21.938c6.094 0 11 4.906 11 11s-4.906 11-11 11h-21.938c-6.094 0-11-4.906-11-11s4.906-11 11-11zm-74 0h43.938c6.094 0 11 4.906 11 11s-4.906 11-11 11h-43.938c-6.094 0-11-4.906-11-11s4.906-11 11-11zm-150 0h117.94c6.094 0 11 4.906 11 11s-4.906 11-11 11H92.387c-6.094 0-11-4.906-11-11s4.906-11 11-11zM716.387 91.47h95.938c6.094 0 11 4.906 11 11s-4.906 11-11 11h-95.938c-6.094 0-11-4.906-11-11s4.906-11 11-11zm-40 0h9.938c6.094 0 11 4.906 11 11s-4.906 11-11 11h-9.938c-6.094 0-11-4.906-11-11s4.906-11 11-11zm-86 0h55.938c6.094 0 11 4.906 11 11s-4.906 11-11 11h-55.938c-6.094 0-11-4.906-11-11s4.906-11 11-11zm-46 0h16.854c6.094 0 11 4.906 11 11s-4.906 11-11 11h-16.854c-6.094 0-11-4.906-11-11s4.906-11 11-11zm-154 0h123.94c6.094 0 11 4.906 11 11s-4.906 11-11 11h-123.94c-6.094 0-11-4.906-11-11s4.906-11 11-11zm-64 0h33.938c6.094 0 11 4.906 11 11s-4.906 11-11 11h-33.938c-6.094 0-11-4.906-11-11s4.906-11 11-11zm-158 0h127.94c6.094 0 11 4.906 11 11s-4.906 11-11 11h-127.94c-6.094 0-11-4.906-11-11s4.906-11 11-11zm-76 0h43.938c6.094 0 11 4.906 11 11s-4.906 11-11 11H92.387c-6.094 0-11-4.906-11-11s4.906-11 11-11z"/></g></g></svg>