<svg xmlns="http://www.w3.org/2000/svg" xml:space="preserve" viewBox="0 0 1000 1000"><g opacity=".05"><path fill="#e9e9e9" d="M46.11 971.45c0 5.61-2.23 11-6.19 15-3.97 3.96-9.34 6.19-15 6.19s-11-2.23-15-6.19c-3.97-3.97-6.19-9.34-6.19-15s2.23-11 6.19-15c3.97-3.96 9.34-6.19 15-6.19s11 2.23 15 6.19c3.97 3.97 6.19 9.34 6.19 15z"/><path fill="#fff" d="M66.81 953.45h55.9c4.37 0 7.89 3.52 7.89 7.89 0 4.37-3.52 7.89-7.89 7.89h-55.9c-4.37 0-7.89-3.52-7.89-7.89 0-4.37 3.52-7.89 7.89-7.89z"/><path fill="#777780" d="M144.71 957.45h106c3.18 0 5.74 2.56 5.74 5.74s-2.56 5.74-5.74 5.74h-106c-3.18 0-5.74-2.56-5.74-5.74s2.56-5.74 5.74-5.74z"/><path fill="#dfdfe6" d="M327.71 978.45h23.6c4.37 0 7.89 3.52 7.89 7.89 0 4.37-3.52 7.89-7.89 7.89h-23.6c-4.37 0-7.89-3.52-7.89-7.89 0-4.37 3.52-7.89 7.89-7.89zm-64.6 0h43c4.37 0 7.89 3.52 7.89 7.89 0 4.37-3.52 7.89-7.89 7.89h-43c-4.37 0-7.89-3.52-7.89-7.89 0-4.37 3.52-7.89 7.89-7.89zm-45.9 0h24.3c4.37 0 7.89 3.52 7.89 7.89 0 4.37-3.52 7.89-7.89 7.89h-24.3c-4.37 0-7.89-3.52-7.89-7.89 0-4.37 3.52-7.89 7.89-7.89zm-71.7 0h50.2c4.37 0 7.89 3.52 7.89 7.89 0 4.37-3.52 7.89-7.89 7.89h-50.2c-4.37 0-7.89-3.52-7.89-7.89 0-4.37 3.52-7.89 7.89-7.89zm-78.9 0h55.9c4.37 0 7.89 3.52 7.89 7.89 0 4.37-3.52 7.89-7.89 7.89h-55.9c-4.37 0-7.89-3.52-7.89-7.89 0-4.37 3.52-7.89 7.89-7.89z"/><path fill="#8b8b8b" d="M46.11 870.45c0 11.7-9.47 21.1-21.1 21.1s-21.1-9.47-21.1-21.1c0-11.7 9.47-21.1 21.1-21.1s21.1 9.47 21.1 21.1z"/><path fill="#b2b2b2" d="M66.81 852.45h113c4.37 0 7.89 3.52 7.89 7.89 0 4.37-3.52 7.89-7.89 7.89h-113c-4.37 0-7.89-3.52-7.89-7.89 0-4.37 3.52-7.89 7.89-7.89z"/><path fill="#777780" d="M201.71 855.45h106c3.18 0 5.74 2.56 5.74 5.74s-2.56 5.74-5.74 5.74h-106c-3.18 0-5.74-2.56-5.74-5.74s2.56-5.74 5.74-5.74z"/><path fill="#dfdfe6" d="M601.71 907.45h53c4.37 0 7.89 3.52 7.89 7.89s-3.52 7.89-7.89 7.89h-53c-4.37 0-7.89-3.52-7.89-7.89s3.52-7.89 7.89-7.89zm-45.9 0h24.3c4.37 0 7.89 3.52 7.89 7.89s-3.52 7.89-7.89 7.89h-24.3c-4.37 0-7.89-3.52-7.89-7.89s3.52-7.89 7.89-7.89zm-106 0h84.6c4.37 0 7.89 3.52 7.89 7.89s-3.52 7.89-7.89 7.89h-84.6c-4.37 0-7.89-3.52-7.89-7.89s3.52-7.89 7.89-7.89zm-90.4 0h69.5c4.37 0 7.89 3.52 7.89 7.89s-3.52 7.89-7.89 7.89h-69.5c-4.37 0-7.89-3.52-7.89-7.89s3.52-7.89 7.89-7.89zm-96.1 0h74.6c4.37 0 7.89 3.52 7.89 7.89s-3.52 7.89-7.89 7.89h-74.6c-4.37 0-7.89-3.52-7.89-7.89s3.52-7.89 7.89-7.89zm-45.9 0h24.3c4.37 0 7.89 3.52 7.89 7.89s-3.52 7.89-7.89 7.89h-24.3c-4.37 0-7.89-3.52-7.89-7.89s3.52-7.89 7.89-7.89zm-103 0h81.7c4.37 0 7.89 3.52 7.89 7.89s-3.52 7.89-7.89 7.89h-81.7c-4.37 0-7.89-3.52-7.89-7.89s3.52-7.89 7.89-7.89zm-47.3 0h24.3c4.37 0 7.89 3.52 7.89 7.89s-3.52 7.89-7.89 7.89h-24.3c-4.37 0-7.89-3.52-7.89-7.89s3.52-7.89 7.89-7.89zM392.71 876.45h58.8c4.37 0 7.89 3.52 7.89 7.89s-3.52 7.89-7.89 7.89h-58.8c-4.37 0-7.89-3.52-7.89-7.89s3.52-7.89 7.89-7.89zm-53.1 0h32.2c4.37 0 7.89 3.52 7.89 7.89s-3.52 7.89-7.89 7.89h-32.2c-4.37 0-7.89-3.52-7.89-7.89s3.52-7.89 7.89-7.89zm-73.2 0h51.6c4.37 0 7.89 3.52 7.89 7.89s-3.52 7.89-7.89 7.89h-51.6c-4.37 0-7.89-3.52-7.89-7.89s3.52-7.89 7.89-7.89zm-43 0h21.5c4.37 0 7.89 3.52 7.89 7.89s-3.52 7.89-7.89 7.89h-21.5c-4.37 0-7.89-3.52-7.89-7.89s3.52-7.89 7.89-7.89zm-73.2 0h51.6c4.37 0 7.89 3.52 7.89 7.89s-3.52 7.89-7.89 7.89h-51.6c-4.37 0-7.89-3.52-7.89-7.89s3.52-7.89 7.89-7.89zm-83.2 0h60.2c4.37 0 7.89 3.52 7.89 7.89s-3.52 7.89-7.89 7.89h-60.2c-4.37 0-7.89-3.52-7.89-7.89s3.52-7.89 7.89-7.89z"/><path fill="#dcdcdc" d="M46.11 386.45c0 11.7-9.47 21.1-21.1 21.1s-21.1-9.47-21.1-21.1c0-11.7 9.47-21.1 21.1-21.1s21.1 9.47 21.1 21.1z"/><path fill="#fff" d="M66.81 368.45h86c4.37 0 7.89 3.52 7.89 7.89 0 4.37-3.52 7.89-7.89 7.89h-86c-4.37 0-7.89-3.52-7.89-7.89 0-4.37 3.52-7.89 7.89-7.89z"/><path fill="#777780" d="M174.71 371.45h106c3.18 0 5.74 2.56 5.74 5.74s-2.56 5.74-5.74 5.74h-106c-3.18 0-5.74-2.56-5.74-5.74s2.56-5.74 5.74-5.74z"/><path fill="#dfdfe6" d="M281.71 392.45h86c4.37 0 7.89 3.52 7.89 7.89 0 4.37-3.52 7.89-7.89 7.89h-86c-4.37 0-7.89-3.52-7.89-7.89 0-4.37 3.52-7.89 7.89-7.89zm-54.5 0h33c4.37 0 7.89 3.52 7.89 7.89 0 4.37-3.52 7.89-7.89 7.89h-33c-4.37 0-7.89-3.52-7.89-7.89 0-4.37 3.52-7.89 7.89-7.89zm-35.9 0h14.3c4.37 0 7.89 3.52 7.89 7.89 0 4.37-3.52 7.89-7.89 7.89h-14.3c-4.37 0-7.89-3.52-7.89-7.89 0-4.37 3.52-7.89 7.89-7.89zm-125 0h102c4.37 0 7.89 3.52 7.89 7.89 0 4.37-3.52 7.89-7.89 7.89h-102c-4.37 0-7.89-3.52-7.89-7.89 0-4.37 3.52-7.89 7.89-7.89z"/><path fill="#757575" d="M46.11 459.45c0 11.7-9.47 21.1-21.1 21.1s-21.1-9.47-21.1-21.1c0-11.7 9.47-21.1 21.1-21.1s21.1 9.47 21.1 21.1z"/><path fill="#b2b2b2" d="M66.81 441.45h113c4.37 0 7.89 3.52 7.89 7.89 0 4.37-3.52 7.89-7.89 7.89h-113c-4.37 0-7.89-3.52-7.89-7.89 0-4.37 3.52-7.89 7.89-7.89z"/><path fill="#777780" d="M201.71 444.45h106c3.18 0 5.74 2.56 5.74 5.74s-2.56 5.74-5.74 5.74h-106c-3.18 0-5.74-2.56-5.74-5.74s2.56-5.74 5.74-5.74z"/><path fill="#dfdfe6" d="M444.71 465.45h72.3c4.37 0 7.89 3.52 7.89 7.89s-3.52 7.89-7.89 7.89h-72.3c-4.37 0-7.89-3.52-7.89-7.89s3.52-7.89 7.89-7.89zm-34.4 0h12.9c4.37 0 7.89 3.52 7.89 7.89s-3.52 7.89-7.89 7.89h-12.9c-4.37 0-7.89-3.52-7.89-7.89s3.52-7.89 7.89-7.89zm-179 0h158c4.37 0 7.89 3.52 7.89 7.89s-3.52 7.89-7.89 7.89h-158c-4.37 0-7.89-3.52-7.89-7.89s3.52-7.89 7.89-7.89zm-123 0h102c4.37 0 7.89 3.52 7.89 7.89s-3.52 7.89-7.89 7.89h-102c-4.37 0-7.89-3.52-7.89-7.89s3.52-7.89 7.89-7.89zm-40.2 0h17.2c4.37 0 7.89 3.52 7.89 7.89s-3.52 7.89-7.89 7.89h-17.2c-4.37 0-7.89-3.52-7.89-7.89s3.52-7.89 7.89-7.89z"/><path fill="#dfdfdf" d="M46.11 533.45c0 11.7-9.47 21.1-21.1 21.1s-21.1-9.47-21.1-21.1c0-11.7 9.47-21.1 21.1-21.1s21.1 9.47 21.1 21.1z"/><path fill="#fff" d="M66.81 516.45h57.4c4.37 0 7.89 3.52 7.89 7.89s-3.52 7.89-7.89 7.89h-57.4c-4.37 0-7.89-3.52-7.89-7.89s3.52-7.89 7.89-7.89z"/><path fill="#777780" d="M145.71 519.45h106c3.18 0 5.74 2.56 5.74 5.74s-2.56 5.74-5.74 5.74h-106c-3.18 0-5.74-2.56-5.74-5.74s2.56-5.74 5.74-5.74z"/><path fill="#898989" d="M69.91 568.45h423c4.77 0 10.6 5.84 10.6 10.6v229c0 4.77-5.84 10.6-10.6 10.6h-423c-4.77 0-10.6-5.84-10.6-10.6v-229c0-4.77 5.84-10.6 10.6-10.6z"/><path fill="#dfdfe6" d="M207.71 540.45h22.9c4.37 0 7.89 3.52 7.89 7.89s-3.52 7.89-7.89 7.89h-22.9c-4.37 0-7.89-3.52-7.89-7.89s3.52-7.89 7.89-7.89zm-97.5 0h76c4.37 0 7.89 3.52 7.89 7.89s-3.52 7.89-7.89 7.89h-76c-4.37 0-7.89-3.52-7.89-7.89s3.52-7.89 7.89-7.89zm-43 0h20c4.37 0 7.89 3.52 7.89 7.89s-3.52 7.89-7.89 7.89h-20c-4.37 0-7.89-3.52-7.89-7.89s3.52-7.89 7.89-7.89z"/><path fill="#939393" d="M46.11 251.45c0 11.7-9.47 21.1-21.1 21.1s-21.1-9.47-21.1-21.1 9.47-21.1 21.1-21.1 21.1 9.47 21.1 21.1z"/><path fill="#b2b2b2" d="M66.81 233.45h113c4.37 0 7.89 3.52 7.89 7.89 0 4.37-3.52 7.89-7.89 7.89h-113c-4.37 0-7.89-3.52-7.89-7.89 0-4.37 3.52-7.89 7.89-7.89z"/><path fill="#777780" d="M201.71 236.45h106c3.18 0 5.74 2.56 5.74 5.74s-2.56 5.74-5.74 5.74h-106c-3.18 0-5.74-2.56-5.74-5.74s2.56-5.74 5.74-5.74z"/><g fill="#dfdfe6"><path d="M594.71 319.45h21.5c4.37 0 7.89 3.52 7.89 7.89s-3.52 7.89-7.89 7.89h-21.5c-4.37 0-7.89-3.52-7.89-7.89s3.52-7.89 7.89-7.89zm-123 0h102c4.37 0 7.89 3.52 7.89 7.89s-3.52 7.89-7.89 7.89h-102c-4.37 0-7.89-3.52-7.89-7.89s3.52-7.89 7.89-7.89zm-51.6 0h30.1c4.37 0 7.89 3.52 7.89 7.89s-3.52 7.89-7.89 7.89h-30.1c-4.37 0-7.89-3.52-7.89-7.89s3.52-7.89 7.89-7.89zm-109 0h88.1c4.37 0 7.89 3.52 7.89 7.89s-3.52 7.89-7.89 7.89h-88.1c-4.37 0-7.89-3.52-7.89-7.89s3.52-7.89 7.89-7.89zm-63.1 0h41.6c4.37 0 7.89 3.52 7.89 7.89s-3.52 7.89-7.89 7.89h-41.6c-4.37 0-7.89-3.52-7.89-7.89s3.52-7.89 7.89-7.89zm-45.9 0h24.3c4.37 0 7.89 3.52 7.89 7.89s-3.52 7.89-7.89 7.89h-24.3c-4.37 0-7.89-3.52-7.89-7.89s3.52-7.89 7.89-7.89zm-100 0h78.9c4.37 0 7.89 3.52 7.89 7.89s-3.52 7.89-7.89 7.89h-78.9c-4.37 0-7.89-3.52-7.89-7.89s3.52-7.89 7.89-7.89zm-34.4 0h11.4c4.37 0 7.89 3.52 7.89 7.89s-3.52 7.89-7.89 7.89h-11.4c-4.37 0-7.89-3.52-7.89-7.89s3.52-7.89 7.89-7.89zM346.71 288.45h32.2c4.37 0 7.89 3.52 7.89 7.89 0 4.37-3.52 7.89-7.89 7.89h-32.2c-4.37 0-7.89-3.52-7.89-7.89 0-4.37 3.52-7.89 7.89-7.89zm-81.8 0h60.2c4.37 0 7.89 3.52 7.89 7.89 0 4.37-3.52 7.89-7.89 7.89h-60.2c-4.37 0-7.89-3.52-7.89-7.89 0-4.37 3.52-7.89 7.89-7.89zm-37.3 0h15.7c4.37 0 7.89 3.52 7.89 7.89 0 4.37-3.52 7.89-7.89 7.89h-15.7c-4.37 0-7.89-3.52-7.89-7.89 0-4.37 3.52-7.89 7.89-7.89zm-53.1 0h31.5c4.37 0 7.89 3.52 7.89 7.89 0 4.37-3.52 7.89-7.89 7.89h-31.5c-4.37 0-7.89-3.52-7.89-7.89 0-4.37 3.52-7.89 7.89-7.89zm-108 0h84.6c4.37 0 7.89 3.52 7.89 7.89 0 4.37-3.52 7.89-7.89 7.89h-84.6c-4.37 0-7.89-3.52-7.89-7.89 0-4.37 3.52-7.89 7.89-7.89zM514.71 257.45h68.8c4.37 0 7.89 3.52 7.89 7.89 0 4.37-3.52 7.89-7.89 7.89h-68.8c-4.37 0-7.89-3.52-7.89-7.89 0-4.37 3.52-7.89 7.89-7.89zm-28.7 0h7.13c4.37 0 7.89 3.52 7.89 7.89 0 4.37-3.52 7.89-7.89 7.89h-7.13c-4.37 0-7.89-3.52-7.89-7.89 0-4.37 3.52-7.89 7.89-7.89zm-61.7 0h40.1c4.37 0 7.89 3.52 7.89 7.89 0 4.37-3.52 7.89-7.89 7.89h-40.1c-4.37 0-7.89-3.52-7.89-7.89 0-4.37 3.52-7.89 7.89-7.89zm-33 0h12.1c4.37 0 7.89 3.52 7.89 7.89 0 4.37-3.52 7.89-7.89 7.89h-12.1c-4.37 0-7.89-3.52-7.89-7.89 0-4.37 3.52-7.89 7.89-7.89zm-110 0h88.9c4.37 0 7.89 3.52 7.89 7.89 0 4.37-3.52 7.89-7.89 7.89h-88.9c-4.37 0-7.89-3.52-7.89-7.89 0-4.37 3.52-7.89 7.89-7.89zm-45.9 0h24.3c4.37 0 7.89 3.52 7.89 7.89 0 4.37-3.52 7.89-7.89 7.89h-24.3c-4.37 0-7.89-3.52-7.89-7.89 0-4.37 3.52-7.89 7.89-7.89zm-113 0h91.8c4.37 0 7.89 3.52 7.89 7.89 0 4.37-3.52 7.89-7.89 7.89h-91.8c-4.37 0-7.89-3.52-7.89-7.89 0-4.37 3.52-7.89 7.89-7.89zm-54.5 0h31.5c4.37 0 7.89 3.52 7.89 7.89 0 4.37-3.52 7.89-7.89 7.89h-31.5c-4.37 0-7.89-3.52-7.89-7.89 0-4.37 3.52-7.89 7.89-7.89z"/></g></g></svg>