<svg version="1.1" viewBox="0 0 1e3 1e3" xmlns="http://www.w3.org/2000/svg"><path d="m500 5c-131 0-257 52.2-350 145-92.8 92.8-145 219-145 350s52.2 257 145 350c92.8 92.8 219 145 350 145s257-52.2 350-145 145-219 145-350-52.2-257-145-350c-92.8-92.8-219-145-350-145zm0 86.2c108 0 212 43.1 289 120 76.7 76.7 120 181 120 289s-43.1 212-120 289c-76.7 76.7-181 120-289 120s-212-43.1-289-120c-76.7-76.7-120-181-120-289s43.1-212 120-289c76.7-76.7 181-120 289-120z" fill="#fff"/><path d="m362 325c-10.4-5e-5 -20.4 4.14-27.8 11.5-15.3 15.3-15.3 40.2 0 55.5l106 106-106 106c-15.3 15.3-15.3 40.2 0 55.5 15.3 15.3 40.2 15.3 55.5 0l106-106 106 106c15.3 15.3 40.2 15.3 55.5 0 15.3-15.3 15.3-40.2 0-55.5l-106-106 106-106c15.3-15.3 15.3-40.2 0-55.5-7.37-7.37-17.4-11.5-27.8-11.5-10.4-5e-5 -20.4 4.14-27.8 11.5l-106 106-106-106c-7.37-7.37-17.4-11.5-27.8-11.5z" fill="#fff" stroke-width=".857"/></svg>
