<?xml version="1.0" encoding="UTF-8"?>
<svg version="1.1" viewBox="0 0 1e3 1e3" xmlns="http://www.w3.org/2000/svg">
 <path d="m499 1a498 498 0 0 0-498 498 498 498 0 0 0 498 498 498 498 0 0 0 498-498 498 498 0 0 0-498-498zm176.57 250.31c6.0275-1.7e-4 12.056 3.8216 19.668 11.467l42.312 42.316c15.293 15.223 15.291 24.109-0.00195 39.332l-155.49 155.49 156.35 156.35c15.292 15.226 14.427 23.25-0.86523 38.475l-42.311 42.311c-15.224 15.292-23.248 16.154-38.473 0.86328l-156.35-156.35-155.49 155.49c-15.224 15.292-24.11 15.292-39.334 0.00195l-42.32-42.301c-15.292-15.226-15.292-24.11 0-39.334l155.49-155.49-155.49-155.49c-15.29-15.224-15.29-24.11 0-39.336l42.311-42.311c15.226-15.291 24.112-15.292 39.338-0.00195l155.49 155.49 155.49-155.49c7.6128-7.6445 13.64-11.467 19.668-11.467z" fill="#fff"/>
</svg>
