<svg xmlns="http://www.w3.org/2000/svg" viewBox="0 0 1000 1000"><path fill="#fff" d="M370.309 127.611c-92.062 0-166.691 94.82-166.692 211.787 0 116.968 74.63 211.79 166.692 211.79 92.061 0 166.693-94.821 166.693-211.79 0-116.967-74.633-211.788-166.693-211.787zm260 0c-24.634 0-48.017 6.795-69.059 18.98 45.288 47.242 72.751 117.506 72.752 192.807 0 75.303-27.463 145.57-72.752 192.811 21.042 12.186 44.425 18.979 69.059 18.979 92.061 0 166.693-94.821 166.693-211.79 0-116.967-74.633-211.788-166.693-211.787zm-454.55 459.127c-28.971-.06-55.578 8.978-78.238 36.01-69.057 82.38-95.806 150.433-95.806 266.94H738.18c0-116.507-26.751-184.56-95.809-266.942-69.057-82.38-174.762 30.328-272.424 30.328-65.616 0-134.864-66.213-194.187-66.336zm664.663 5.887c-28.667-.153-60.132 12.475-92.693 26.225 60.264 79.176 87.45 158.646 87.45 270.837h163c0-116.506-26.75-184.558-95.808-266.94-18.343-21.883-39.272-30-61.95-30.122z"/></svg>