<svg viewBox="0 0 1000 1000" xmlns="http://www.w3.org/2000/svg"><path d="M379.41 116.11a176.745 189.023 0 0 0-176.744 189.022 176.745 189.023 0 0 0 176.745 189.024 176.745 189.023 0 0 0 176.746-189.024A176.745 189.023 0 0 0 379.41 116.11Zm4.596 408.034c-310.404 0-376.164 162.67-376.164 363.333H760.17c0-200.663-65.76-363.333-376.164-363.333Z" style="fill:#fff"/><path d="M612.817 116.11a166.134 166.134 0 0 0-45.689 7.27c49.557 43.86 80.828 109.608 80.828 181.752 0 72.161-31.326 137.869-80.905 181.73a166.137 166.137 0 0 0 45.766 7.294c97.615 0 176.747-84.629 176.747-189.024S710.43 116.109 612.817 116.11Zm62.754 410.16c37.67 19.36 68.744 43.974 93.46 73.392 66.237 78.84 82.938 182.236 82.938 287.815h141.608c0-187.441-57.444-341.687-318.006-361.206Z" style="fill:#fff"/></svg>