<svg viewBox="0 0 1000 1000" xmlns="http://www.w3.org/2000/svg"><path d="M312.716 311.32a146.674 156.863 0 0 0-146.673 156.862 146.674 156.863 0 0 0 146.674 156.863A146.674 156.863 0 0 0 459.39 468.182a146.674 156.863 0 0 0-146.675-156.863Zm3.814 338.611c-257.593 0-312.165 134.994-312.165 301.517h624.33c0-166.523-54.573-301.517-312.165-301.517zM731.341 11.575c-22.207-.05-32.444 10.19-32.394 32.398v164.732H534.213c-22.208-.048-32.447 10.19-32.398 32.398v34.399c-.049 22.208 10.19 32.448 32.398 32.4h164.736v164.734c-.05 22.207 10.187 32.446 32.395 32.398h34.404c22.206.048 32.444-10.191 32.396-32.398V307.904h164.734c22.209.046 32.447-10.194 32.399-32.402v-34.399c.047-22.207-10.192-32.446-32.399-32.397H798.141V43.973c.05-22.208-10.188-32.446-32.396-32.398z" fill="#fff"/></svg>