<svg viewBox="0 0 1000 1000" xmlns="http://www.w3.org/2000/svg"><path fill="#fff" d="M732.567 0c-22.501-.05-32.874 10.325-32.823 32.828v166.915H532.827c-22.502-.049-32.876 10.325-32.827 32.828v34.854c-.05 22.503 10.325 32.879 32.827 32.83h166.919v166.917c-.05 22.502 10.322 32.876 32.824 32.828h34.86c22.5.048 32.874-10.326 32.825-32.828V300.257h166.917c22.503.047 32.876-10.33 32.828-32.832v-34.854c.048-22.502-10.327-32.877-32.828-32.827h-166.92V32.828C800.302 10.325 789.93-.048 767.427 0ZM349.541 402.403a136.888 146.397 0 0 0-136.887 146.396 136.888 146.397 0 0 0 136.888 146.398A136.888 146.397 0 0 0 486.432 548.8a136.888 146.397 0 0 0-136.89-146.396Zm3.56 316.02c-240.407 0-291.337 125.987-291.337 281.4h582.674c0-155.413-50.93-281.4-291.337-281.4z"/></svg>