<?xml version="1.0" encoding="UTF-8" standalone="no"?>
<svg
   viewBox="0 0 1000 1000"
   version="1.1"
   id="svg1601"
   xmlns="http://www.w3.org/2000/svg"
   xmlns:svg="http://www.w3.org/2000/svg">
  <defs
     id="defs1594" />
  <path
     fill="#ffffff"
     d="m 872.42248,92.641842 c -22.49846,-22.59813 -43.28918,-22.596074 -65.78763,0.0037 L 500.00095,399.27986 193.36498,92.642864 c -22.49947,-22.597096 -43.29226,-22.598118 -65.79174,10e-4 L 92.64598,127.57117 c -22.599149,22.49947 -22.601206,43.29226 -0.0037,65.79379 L 399.28091,500.00298 92.64598,806.63791 c -22.600173,22.49743 -22.60223,43.28917 -0.0038,65.78764 l 34.93241,34.93239 c 22.49948,22.5971 43.29021,22.59505 65.78969,0 L 499.99889,600.72301 806.63485,907.35897 c 22.50256,22.5971 43.29534,22.59504 65.79589,-0.004 L 907.358,872.4277 c 22.59704,-22.50051 22.59601,-43.29226 0,-65.79175 L 600.71789,499.99887 907.35387,193.36393 c 22.59807,-22.49948 22.59911,-43.28918 0,-65.78968 z"
     id="path1599" />
</svg>
