<svg xmlns="http://www.w3.org/2000/svg" viewBox="0 0 1000 1000"><path fill="#fff" d="M862.354 102.168c-21.896-21.993-42.13-21.991-64.026.004L499.905 400.595 201.48 102.169c-21.897-21.992-42.133-21.993-64.03.001l-33.992 33.992c-21.994 21.897-21.996 42.133-.003 64.032l298.427 298.427-298.424 298.424c-21.995 21.895-21.997 42.13-.003 64.026l33.997 33.997c21.897 21.992 42.131 21.99 64.028 0l298.423-298.424 298.425 298.425c21.9 21.992 42.136 21.99 64.034-.003l33.992-33.992c21.992-21.898 21.991-42.133 0-64.03L597.925 498.617 896.35 200.193c21.993-21.897 21.994-42.13 0-64.028z"/></svg>