<svg viewBox="0 0 1000 1000" xmlns="http://www.w3.org/2000/svg"><path d="M166.942 874.047c24.922 25.03 39.466 25.03 64.387-.004L500 605.37l270.087 270.088c24.922 25.03 38.055 23.617 62.977-1.415l40.977-40.977c25.033-24.923 26.45-38.055 1.418-62.98l-270.09-270.09 268.673-268.672c25.034-24.92 25.037-39.465.004-64.386l-40.982-40.983c-24.922-25.03-39.467-25.028-64.39 0L500.005 394.63 231.33 125.956c-24.925-25.03-39.472-25.028-64.396.004l-40.976 40.977c-25.03 24.924-25.03 39.47 0 64.392l268.677 268.674L125.96 768.676c-25.032 24.922-25.033 39.465 0 64.389z" fill="#fff"/></svg>