<svg viewBox="0 0 1000 1000" xmlns="http://www.w3.org/2000/svg"><path d="M500 2.254c-131.983 0-258.635 52.459-351.96 145.785C54.712 241.365 2.253 368.017 2.253 500s52.459 258.635 145.785 351.96C241.365 945.288 368.017 997.747 500 997.747s258.635-52.459 351.96-145.785C945.288 758.635 997.747 631.983 997.747 500s-52.459-258.635-145.785-351.96C758.635 54.712 631.983 2.253 500 2.253Z" fill="#dc3232"/><path d="M197.094 401.07h605.812c8.831 0 15.94 8.732 15.94 19.579V579.35c0 10.847-7.109 19.579-15.94 19.579H197.094c-8.831 0-15.94-8.732-15.94-19.579V420.65c0-10.847 7.109-19.579 15.94-19.579z" fill="#fff"/></svg>