<svg version="1.1" viewBox="0 0 1e3 1e3" xml:space="preserve" xmlns="http://www.w3.org/2000/svg"><path d="m164 104c-87.6 0-160 72.4-160 160v572c0 87.6 72.4 160 160 160h572c87.6 0 160-72.4 160-160v-240a60 60 0 0 0-60-60 60 60 0 0 0-60 60v240c0 23.2-16.8 40-40 40h-572c-23.2 0-40-16.8-40-40v-572c0-23.2 16.8-40 40-40h240a60 60 0 0 0 60-60 60 60 0 0 0-60-60z" fill="#fff"/><path d="m692 3.37c-18.2 4e-3 -34.6 11-41.6 27.8-6.96 16.8-3.12 36.2 9.75 49l260 260c12.9 12.9 32.2 16.7 49 9.75 16.8-6.96 27.8-23.4 27.8-41.6v-260c-2e-3 -24.9-20.1-45-45-45z" fill="#fff"/><path d="m844 51.9-445 445c-29.3 29.3-29.3 76.8 0 106 29.3 29.3 76.8 29.3 106 0l445-445z" fill="#fff"/></svg>
