<svg viewBox="0 0 1000 1000" xmlns="http://www.w3.org/2000/svg"><path d="M512.652 656.847c-27.222 0-36.191-16.997-37.735-18.544L245.171 386.757c-16.879-17.591-16.879-46 0-63.474l61.102-1.13c77.751 0 27.785.056 118.12.104V100.34c0-23.895 9.716-37.427 32.66-37.427h110.245c22.944 0 32.66 13.415 32.66 37.427v221.917c63.612 0 57.695-.1 118.12-.1l60.983 1.011c16.879 17.594 16.879 46.004 0 63.478L549.433 638.303c-1.428 1.545-9.797 18.544-36.78 18.544zm-243.561 107.09h485.932c24.779 0 37.38 8.923 37.38 33.702v83.698c0 24.779-12.601 33.702-37.38 33.702H269.091c-24.78 0-37.38-8.923-37.38-33.702v-83.698c0-24.779 12.6-33.702 37.38-33.702z" fill="#fff"/></svg>