<svg xmlns="http://www.w3.org/2000/svg" viewBox="0 0 1000 1000"><path fill="#fff" d="M863.482 6.652c-10.692.116-20.532 3.707-27.826 11l-67.332 67.33 150.791 150.793 67.332-67.33c17.954-17.953 13.47-51.345-10.054-74.869l-65.87-65.869c-13.967-13.968-31.413-21.223-47.04-21.055zm-125.238 108.41L318.791 534.519l150.791 150.79 419.453-419.453-150.79-150.793zM52.285 174.57a50.005 50.005 0 00-50 50v549.145c0 127.32 109.729 224 232 224h531.43a50.005 50.005 0 0050-50V665.143a50.005 50.005 0 10-100 0v232.572h-481.43c-69.428 0-132-55.27-132-124V274.57h253.43a50.005 50.005 0 100-100H52.285zm236.426 390.026l-.191.191-43.432 194.225L439.31 715.58l.193-.19L288.71 564.597z"/></svg>