<svg viewBox="0 0 474.133 474.133" xmlns="http://www.w3.org/2000/svg"><path style="fill:#ff4b4b" d="M474.134 237.067a237.067 237.067 0 0 1-237.067 237.067A237.067 237.067 0 0 1 0 237.067 237.067 237.067 0 0 1 237.067 0a237.067 237.067 0 0 1 237.067 237.067Z"/><path style="fill:#fff;stroke-width:.943153" d="M368.5 142.358a13.088 13.088 0 0 0-3.858-9.286l-23.58-23.579c-5.122-5.144-13.45-5.144-18.571 0l-85.424 85.424-85.425-85.424c-5.121-5.144-13.448-5.144-18.57 0l-23.58 23.58c-5.144 5.12-5.144 13.449 0 18.57l85.424 85.424-85.424 85.425c-5.144 5.121-5.144 13.448 0 18.57l23.58 23.58c5.122 5.144 13.45 5.144 18.571 0l85.424-85.424 85.424 85.424c5.121 5.144 13.45 5.144 18.57 0l23.58-23.58c5.144-5.122 5.144-13.45 0-18.571l-85.424-85.424 85.424-85.425c2.47-2.458 3.86-5.8 3.858-9.284z"/></svg>