<svg version="1.1" viewBox="0 0 1e3 1e3" xml:space="preserve" xmlns="http://www.w3.org/2000/svg"><path d="m129.3 62.38c-51.33 0-95 43.67-95 95v687.5c0 51.33 43.67 95 95 95h393.3c51.33 0 95-43.67 95-95v-138.3h-130v103.3h-323.3v-617.5h323.3v93.78h130v-128.8c0-51.33-43.67-95-95-95zm643.3 214.7c-10.76-1.501-20.19 8.724-20.19 21.89v129.2h-405.9c-9.766 0-17.63 7.862-17.63 17.63v108.3c0 9.766 7.862 17.63 17.63 17.63h405.9v129.1c4e-3 18.49 17.6 28.75 29.46 17.19l206-200.9c9.041-8.822 9.041-25.55 0-34.38l-206-200.9c-2.665-2.598-5.879-4.228-9.272-4.701z" fill="#fff"/></svg>
