<svg viewBox="0 0 1000 1000" xmlns="http://www.w3.org/2000/svg"><path d="M500 2.254c-131.983 0-258.635 52.459-351.96 145.785C54.712 241.365 2.253 368.017 2.253 500s52.459 258.635 145.785 351.96C241.365 945.288 368.017 997.747 500 997.747s258.635-52.459 351.96-145.785C945.288 758.635 997.747 631.983 997.747 500s-52.459-258.635-145.785-351.96C758.635 54.712 631.983 2.253 500 2.253zm0 141.492a356.159 356.159 0 0 1 251.908 104.346A356.159 356.159 0 0 1 856.254 500a356.13 356.13 0 0 1-50.951 183.566l-488.87-488.869A356.13 356.13 0 0 1 500 143.747zM194.697 316.434l488.87 488.869A356.13 356.13 0 0 1 500 856.253a356.159 356.159 0 0 1-251.908-104.345A356.159 356.159 0 0 1 143.746 500a356.13 356.13 0 0 1 50.951-183.566z" fill="#dc3232"/></svg>