<svg xmlns="http://www.w3.org/2000/svg" viewBox="0 0 1792 1792"><path style="fill:#FFF" d="M1792 1062.476V733.492l-201.6-33.794a633.216 633.261 0 00-63.488-153.611l119.04-164.492-231.68-235.537-167.68 116.233c-48.64-26.242-101.12-48.644-153.088-63.62L1060.352 0H731.648l-33.664 201.998a702.592 702.642 0 00-153.088 63.621L380.8 149.771 145.536 381.467l119.552 164.748c-25.6 48.643-48.128 101.127-63.104 157.195L0 733.492v328.984l201.6 33.794c14.976 56.068 37.376 104.712 63.488 153.355l-119.04 168.332 231.552 232.08 167.936-120.072c48.64 26.242 100.736 48.644 156.672 63.62L735.488 1792h328.448l33.664-201.87a784.64 784.696 0 00153.088-63.621l168.32 119.689 231.68-231.953-119.68-168.332c25.984-48.644 48.64-97.287 63.36-153.611L1792 1062.86zm-896 180.109A343.04 343.065 0 01552.576 898.24c0-190.733 156.8-344.344 343.424-344.344a345.344 345.369 0 01343.424 344.344A342.784 342.808 0 01896 1242.33z"/></svg>
