<?xml version="1.0" encoding="UTF-8"?>
<svg width="1792" height="1792" version="1.1" viewBox="0 0 474 474" xmlns="http://www.w3.org/2000/svg"><path d="m403 193c-3.92-14.7-9.72-28.7-17.2-41.6l39.6-51.3-50.8-50.8-51.4 39.6c-13-7.55-27-13.3-41.6-17.2l-8.3-64.3-71.8-0.00776-8.36 64.3c-14.5 3.87-28.5 9.65-41.5 17.2l-51.4-39.6-50.8 50.8 39.6 51.4c-7.54 13-13.3 27-17.2 41.5l-64.3 8.34-0.00969 71.8 64.3 8.31c3.86 14.6 9.64 28.5 17.2 41.6l-39.6 51.4 50.8 50.8 51.3-39.6c12.9 7.47 26.8 13.3 41.6 17.2l8.34 64.3 71.8 7e-3 8.31-64.3c14.7-3.92 28.7-9.72 41.6-17.2l51.3 39.6 50.8-50.8-39.6-51.3c7.48-12.9 13.3-26.9 17.2-41.6l64.3-8.3 8e-3 -71.8zm-84.8 44.2c-5e-3 44.6-36.1 80.7-80.7 80.7-44.6-5e-3 -80.7-36.1-80.7-80.7 6e-3 -44.6 36.1-80.7 80.7-80.7 44.6 6e-3 80.7 36.1 80.7 80.7z" fill="#fff"/></svg>
