<svg viewBox="0 0 474.133 474.133" height="1792" width="1792" xmlns="http://www.w3.org/2000/svg"><path d="M402.617 192.827c-3.923-14.725-9.72-28.672-17.185-41.555l45.5-55.651-52.373-52.387-55.71 45.488a170.09 170.09 0 0 0-41.55-17.195L274.136.008 200.054 0l-7.226 71.517a170.055 170.055 0 0 0-41.507 17.186l-55.7-45.501-52.385 52.374 45.487 55.71a170.06 170.06 0 0 0-17.196 41.502L.01 199.998 0 274.078l71.517 7.18a170.14 170.14 0 0 0 17.186 41.554l-45.5 55.699 52.373 52.386 55.662-45.487c12.88 7.468 26.826 13.27 41.55 17.195l7.21 71.52 74.082.007 7.18-71.517c14.737-3.923 28.709-9.715 41.601-17.186l55.651 45.501 52.386-52.373-45.487-55.663c7.475-12.89 13.27-26.861 17.196-41.598l71.518-7.162.008-74.082zm-89.681 44.248c-.005 41.904-33.974 75.865-75.878 75.86-41.904-.005-75.864-33.974-75.86-75.878.006-41.904 33.974-75.865 75.878-75.86 41.904.006 75.865 33.974 75.86 75.878z" style="fill:#fff"/></svg>