<svg viewBox="0 0 474.133 474.133" xmlns="http://www.w3.org/2000/svg"><circle style="fill:#4b6eff" cx="237.067" cy="237.067" r="237.067"/><path style="fill:#fff" d="M234.473 92.277c-7.432 0-14.62 3.14-19.938 8.457l-.002.002c-5.383 5.385-8.457 12.739-8.457 20.336 0 7.464 2.79 14.701 7.856 20.13.066.07.134.14.203.208 5.384 5.385 12.74 8.46 20.338 8.46 7.644 0 15.029-2.73 20.525-7.86.07-.066.14-.133.209-.201 5.45-5.45 8.46-12.964 8.46-20.737 0-7.598-3.076-14.951-8.46-20.336v-.002c-5.45-5.45-12.962-8.457-20.734-8.457zm19.83 89.108a8.433 8.433 0 0 0-4.276.568c-22.395 9.222-42.745 16.436-60.996 21.65a8.433 8.433 0 0 0-6.115 8.108v5.99c.001 5.155 4.586 9.102 9.684 8.338 4.875-.731 10.046-1.103 15.52-1.103 2.76 0 2.123-.048 2.556.755.077.143.158.284.244.422.46.748 1.943 5.845 1.943 13.948v92.636c0 13.646-3.039 21.494-3.322 21.797-.071.076-.14.154-.209.233.002-.002-6.99 3.537-20.066 4.29a8.433 8.433 0 0 0-7.948 8.419v5.988a8.433 8.433 0 0 0 8.432 8.433h94.633a8.433 8.433 0 0 0 8.431-8.433v-5.988c0-4.391-3.37-8.047-7.746-8.405-11.924-.973-18.408-4.067-18.945-4.4-.257-.597-2.855-8.583-2.855-21.934V190.95a8.433 8.433 0 0 0-3.372-6.746l-1.597-1.197a8.433 8.433 0 0 0-3.996-1.621z"/></svg>