<svg version="1.1" viewBox="0 0 474.1 474.1" xmlns="http://www.w3.org/2000/svg"><path d="m237.1 33.38a203.7 203.7 0 0 0-203.7 203.7 203.7 203.7 0 0 0 203.7 203.7 203.7 203.7 0 0 0 203.7-203.7 203.7 203.7 0 0 0-203.7-203.7zm-2.594 58.89c7.772 0 15.28 3.007 20.73 8.457v0.00195c5.384 5.385 8.461 12.74 8.461 20.34 0 7.773-3.011 15.29-8.461 20.74-0.069 0.068-0.139 0.1352-0.209 0.2012-5.496 5.13-12.88 7.859-20.53 7.859-7.598 0-14.95-3.074-20.34-8.459-0.069-0.068-0.1371-0.139-0.2031-0.209-5.066-5.429-7.855-12.66-7.855-20.13 0-7.597 3.074-14.95 8.457-20.34l0.00196-0.00195c5.318-5.317 12.51-8.457 19.94-8.457zm19.83 89.11v0.00195a8.433 8.433 0 0 1 3.996 1.621l1.598 1.195a8.433 8.433 0 0 1 3.371 6.746v141.7c0 13.35 2.598 21.34 2.855 21.93 0.537 0.333 7.021 3.427 18.95 4.4 4.376 0.358 7.746 4.013 7.746 8.404v5.988a8.433 8.433 0 0 1-8.432 8.434h-94.63a8.433 8.433 0 0 1-8.432-8.434v-5.988a8.433 8.433 0 0 1 7.947-8.418c13.08-0.753 20.07-4.293 20.07-4.291 0.069-0.079 0.138-0.1564 0.209-0.2324 0.283-0.303 3.322-8.151 3.322-21.8v-92.64c0-8.103-1.483-13.2-1.943-13.95-0.086-0.138-0.1671-0.2789-0.2441-0.4219-0.433-0.803 0.2034-0.7559-2.557-0.7559-5.474 0-10.64 0.3725-15.52 1.104-5.098 0.764-9.683-3.183-9.684-8.338v-5.99a8.433 8.433 0 0 1 6.115-8.107c18.25-5.214 38.6-12.43 61-21.65a8.433 8.433 0 0 1 4.275-0.5684z" fill="#fff"/></svg>
