<?xml version="1.0" encoding="UTF-8"?>
<svg version="1.1" viewBox="0 0 512 512" xmlns="http://www.w3.org/2000/svg">
 <path d="m159.2 52.324c-19.942 0.79-41.713 14.61-59.059 32.342h-8e-3l50.797 79.645c-47.087 29.58-69.341 71.312-83.529 116.91-47.011 4.47-14.317-87.328-17.531-108.58 0 0-75.508 119.61-32.617 153.24 30.69 24.065 82.645 33.381 82.645 33.381l-66.027 83.762c44.933 15.125 144.87 16.686 144.87 16.686l57.33-89.246h40.104l57.33 89.246s99.937-1.5606 144.87-16.686l-66.025-83.762s51.954-9.3159 82.645-33.381c42.891-33.631-34.617-153.24-34.617-153.24-3.214 21.248 31.48 113.05-15.531 108.58-14.188-45.594-36.442-87.326-83.529-116.91l50.797-79.645h-8e-3c-17.345-17.733-39.117-31.552-59.058-32.342-2.85-0.112-5.66 0.04033-8.416 0.48633l-76.506 94.813h-24l-76.506-94.813c-2.782-0.44287-5.6015-0.60534-8.416-0.48633zm147.99 162.42c2.0297 0 4.0569 0.77365 5.6055 2.3223l16.027 16.025 16.025-16.025c3.0972-3.0972 8.1196-3.0972 11.217 0 3.0972 3.0972 3.0972 8.1196 0 11.217l-16.025 16.025 16.025 16.025c3.0972 3.0972 3.0972 8.1176 0 11.215-3.0972 3.0972-8.1196 3.0972-11.217 0l-16.025-16.023-16.025 16.023c-3.0972 3.0972-8.1196 3.0972-11.217 0-3.0972-3.0972-3.0972-8.1176 0-11.215l16.027-16.025-16.027-16.025c-3.0972-3.0972-3.0972-8.1196 0-11.217 1.5486-1.5486 3.5797-2.3223 5.6094-2.3223zm-145.96 0.0605c2.0254 0 4.0504 0.77306 5.5957 2.3184l15.992 15.99 15.99-15.99c3.0906-3.0906 8.1028-3.0906 11.193 0 3.0906 3.0906 3.0906 8.1008 0 11.191l-15.99 15.992 15.99 15.99c3.0906 3.0906 3.0906 8.1008 0 11.191-3.0906 3.0906-8.1027 3.0906-11.193 0l-15.99-15.99-15.99 15.99c-3.0906 3.0906-8.1028 3.0906-11.193 0s-3.0906-8.1008 0-11.191l15.992-15.99-15.992-15.992c-3.0906-3.0906-3.0906-8.1008 0-11.191 1.5453-1.5453 3.5703-2.3184 5.5957-2.3184zm151 96.212c4.3642 0.68635 7.3458 4.7803 6.6602 9.1445-0.68636 4.3642-4.7803 7.3458-9.1445 6.6602-41.337-6.5-66.733-5.9008-108.29 0.0176-4.374 0.62222-8.4243-2.419-9.0469-6.793-0.62228-4.3733 2.4178-8.4234 6.791-9.0469 21.441-3.0532 34.923-4.7445 56.434-4.8242 21.51-0.0797 35.048 1.4526 56.602 4.8418z" fill="#fff" opacity=".1"/>
</svg>
