<svg viewBox="0 0 1000 1000" xmlns="http://www.w3.org/2000/svg"><path d="M65.7 150C57 150 50 157.001 50 165.7v78.6C50 253 57.001 260 65.7 260h868.6c8.699 0 15.7-7.001 15.7-15.7v-78.6c0-8.699-7.001-15.7-15.7-15.7H65.7zm0 295.01C57 445.01 50 452.01 50 460.709v78.6a15.666 15.666 0 0 0 15.7 15.7h868.6c8.699 0 15.7-7.003 15.7-15.7v-78.6c0-8.698-7.001-15.7-15.7-15.7H65.7zm0 304.99C57 750 50 757.001 50 765.7v78.6C50 853 57.001 860 65.7 860h868.6c8.699 0 15.7-7.001 15.7-15.7v-78.6c0-8.699-7.001-15.7-15.7-15.7H65.7z" fill="#fff"/></svg>