<svg viewBox="0 0 1000 1000" xmlns="http://www.w3.org/2000/svg"><path style="fill:#fff;stroke-width:13.2715;stroke-linecap:round;stroke-linejoin:round" d="M496.79 27.702c-63.103 0-114.258 51.155-114.257 114.258 0 63.103 51.154 114.258 114.257 114.258s114.258-51.155 114.258-114.258c0-63.103-51.155-114.258-114.258-114.258zm0 360c-63.103 0-114.258 51.155-114.257 114.258 0 63.103 51.154 114.258 114.257 114.258s114.258-51.155 114.258-114.258c0-63.103-51.155-114.258-114.258-114.258zm0 360c-63.103 0-114.258 51.155-114.257 114.258 0 63.103 51.154 114.258 114.257 114.258s114.258-51.155 114.258-114.258c0-63.103-51.155-114.258-114.258-114.258z"/></svg>