<svg xmlns="http://www.w3.org/2000/svg" viewBox="0 0 1000 1000"><path fill="#fff" d="M152.895 106C111.944 106 100 109.434 100 153.64v24.553c0 44.206 11.944 47.64 52.895 47.64h694.21c40.951 0 52.895-3.434 52.895-47.64V153.64c0-44.206-11.944-47.64-52.895-47.64zm0 334.084c-40.951 0-52.895 3.433-52.895 47.64v24.552c0 44.207 11.944 47.64 52.895 47.64h694.21c40.951 0 52.895-3.433 52.895-47.64v-24.552c0-44.207-11.944-47.64-52.895-47.64zm0 334.083c-40.951 0-52.895 3.434-52.895 47.64v24.553c0 44.206 11.944 47.64 52.895 47.64h694.21c40.951 0 52.895-3.434 52.895-47.64v-24.553c0-44.206-11.944-47.64-52.895-47.64z"/></svg>