<?xml version="1.0" encoding="UTF-8"?>
<svg version="1.1" viewBox="0 0 1e3 1e3" xml:space="preserve" xmlns="http://www.w3.org/2000/svg"><path d="m499.89 19.941c-105.32 0-190.1 82.379-190.1 184.71v291.77c0 102.33 84.788 184.71 190.1 184.71s190.1-82.38 190.1-184.71v-291.77c0-102.33-84.786-184.71-190.1-184.71zm-274.59 434.65a40.614 40.614 0 0 0-40.614 40.614c0 112.55 60.138 216.72 157.62 272.99 36.59 21.126 76.395 34.316 117 39.58v93.181h-130.19a40.614 40.614 0 0 0-40.614 40.614 40.614 40.614 0 0 0 40.614 40.614h341.7a40.614 40.614 0 0 0 40.614-40.614 40.614 40.614 0 0 0-40.614-40.614h-130.29v-93.181c40.604-5.265 80.409-18.455 117-39.58 97.474-56.278 157.62-160.45 157.62-272.99a40.614 40.614 0 0 0-40.614-40.614 40.614 40.614 0 0 0-40.614 40.614c0 83.665-44.543 160.82-117 202.65-72.456 41.832-161.54 41.832-233.99 0-72.456-41.832-117-118.99-117-202.65a40.614 40.614 0 0 0-40.614-40.614z" fill="#fff" stroke-width="1.194"/></svg>
