<?xml version="1.0" encoding="UTF-8"?>
<svg width="880" height="962.24" version="1.1" viewBox="0 0 880 962.24" xml:space="preserve" xmlns="http://www.w3.org/2000/svg"><path d="m840 40.059a40 40 0 0 0-28.285 11.715l-800 800a40 40 0 0 0 0 56.57 40 40 0 0 0 56.57 0l800-800a40 40 0 0 0 0-56.57 40 40 0 0 0-28.285-11.715zm-400.11-40.059c-105.32 0-190.1 82.378-190.1 184.71v291.77c0 18.009 2.7565 35.347 7.6582 51.779l370.34-370.34c-13.31-89.509-91.974-157.92-187.89-157.92zm190.1 424.42-232.13 232.13c13.53 2.9492 27.558 4.6406 42.029 4.6406 105.31 0 190.1-82.379 190.1-184.71zm-464.69 10.23a40.614 40.614 0 0 0-40.615 40.613c0 52.686 13.324 103.46 37.342 148.42l60.924-60.924c-11.037-27.378-17.023-56.989-17.023-87.492a40.614 40.614 0 0 0-40.613-40.613zm549.23 0a40.614 40.614 0 0 0-40.613 40.613c0 83.665-44.543 160.82-117 202.65-60.663 35.024-132.95 40.605-197.4 16.982l-61.697 61.697c32.217 16.273 66.55 26.711 101.49 31.24v93.18h-130.19a40.614 40.614 0 0 0-40.613 40.615 40.614 40.614 0 0 0 40.613 40.613h341.7a40.614 40.614 0 0 0 40.613-40.613 40.614 40.614 0 0 0-40.613-40.615h-130.29v-93.18c40.604-5.265 80.409-18.455 117-39.58 97.474-56.278 157.62-160.45 157.62-272.99a40.614 40.614 0 0 0-40.615-40.613z" fill="#FF5B5B"/></svg>
