<svg version="1.1" viewBox="0 0 1e3 1e3" xml:space="preserve" xmlns="http://www.w3.org/2000/svg"><path d="m224 384c87.6 0 160-72.4 160-160v-160c0-33.1-26.9-60-60-60s-60 26.9-60 60v160c0 23.2-16.8 40-40 40h-160c-33.1 0-60 26.9-60 60s26.9 60 60 60zm712 0c33.1 0 60-26.9 60-60s-26.9-60-60-60h-160c-23.2 0-40-16.8-40-40v-160c0-33.1-26.9-60-60-60s-60 26.9-60 60v160c0 87.6 72.4 160 160 160zm-612 612c33.1 0 60-26.9 60-60v-160c0-87.6-72.4-160-160-160h-160c-33.1 0-60 26.9-60 60s26.9 60 60 60h160c23.2 0 40 16.8 40 40v160c0 33.1 26.9 60 60 60zm352 0c33.1 0 60-26.9 60-60v-160c0-23.2 16.8-40 40-40h160c33.1 0 60-26.9 60-60s-26.9-60-60-60h-160c-87.6 0-160 72.4-160 160v160c0 33.1 26.9 60 60 60z" fill="#fff"/></svg>
