<?xml version="1.0" encoding="UTF-8"?>
<svg version="1.1" viewBox="0 0 1e3 1e3" xmlns="http://www.w3.org/2000/svg">
 <path d="m502.463 55.7676c-36.1762-3.34e-4 -65.5032 29.3258-65.5039 65.502 2.1e-4 19.3727 8.57576 37.7516 23.4219 50.1973-30.7302 49.3254-66.9349 118.274-79.8906 125.754-12.9558 7.48005-90.7655 4.35815-148.848 6.3086-5.50755-31.3184-32.7127-54.1574-64.5117-54.1582-36.1777-1e-3 -65.5062 29.3262-65.5059 65.5039 7.5e-4 36.1769 29.3289 65.5034 65.5059 65.502 7.6505-3.3e-4 15.2418-1.34091 22.4297-3.96093 27.3519 51.2759 68.9609 117.102 68.9609 132.062s-41.609 80.7866-68.9609 132.062c-7.18776-2.6207-14.7791-3.96194-22.4297-3.9629-36.1785-9.9e-4 -65.5073 29.3274-65.5059 65.5059 7.4e-4 36.177 29.3289 65.5034 65.5059 65.502 31.799-7.9e-4 59.0042-22.8398 64.5117-54.1582 58.0822 1.95045 135.892-1.16949 148.848 6.31055 12.9558 7.48 49.1605 76.4266 79.8906 125.752-14.8461 12.4456-23.4217 30.8246-23.4219 50.1973 7.5e-4 36.1762 29.3277 65.5023 65.5039 65.502 36.1754-7.5e-4 65.5012-29.3265 65.502-65.502 2.8e-4 -19.3724-8.57453-37.7513-23.4199-50.1973 30.7301-49.3254 66.9329-118.272 79.8887-125.752 12.9558-7.48003 90.7655-4.36011 148.848-6.31055 5.50755 31.3184 32.7127 54.1574 64.5117 54.1582 36.177 1e-3 65.5051-29.325 65.5059-65.502 1e-3 -36.1785-29.3274-65.5073-65.5059-65.5059-7.65062 9.6e-4 -15.2419 1.3422-22.4297 3.9629-27.3519-51.2759-68.9609-117.102-68.9609-132.062s41.609-80.7866 68.9609-132.062c7.18788 2.62002 14.7792 3.9606 22.4297 3.96093 36.1769 1e-3 65.5051-29.325 65.5059-65.502 3.3e-4 -36.1777-29.3282-65.5053-65.5059-65.5039-31.799 7.9e-4 -59.0042 22.8398-64.5117 54.1582-58.0822-1.95046-135.892 1.17145-148.848-6.3086-12.9558-7.48001-49.1585-76.4285-79.8887-125.754 14.8454-12.446 23.4202-30.8249 23.4199-50.1973-7.5e-4 -36.1754-29.3265-65.5012-65.502-65.502zm-1e-4 260.108c106.371 8.6e-4 192.602 86.232 192.601 192.603 3.1e-4 106.371-86.2302 192.602-192.601 192.603-106.372 3.3e-4 -192.603-86.2311-192.603-192.603-3.3e-4 -106.372 86.2311-192.603 192.603-192.603zm-0.2689 39.1641c-84.637 0.14797-153.17 68.8017-153.17 153.439-3.5e-4 84.7414 68.6956 153.438 153.437 153.439 84.7421 3.7e-4 153.439-68.6967 153.439-153.439 3.8e-4 -84.7421-68.6967-153.439-153.439-153.439z" fill="#fff"/>
</svg>
