<?xml version="1.0" encoding="UTF-8"?>
<svg version="1.1" viewBox="0 0 1e3 1e3" xmlns="http://www.w3.org/2000/svg">
 <path d="m502.463 55.7676c-36.1762-3.34e-4 -65.5032 29.3258-65.5039 65.502 2.1e-4 19.3727 8.57576 37.7516 23.4219 50.1973-30.7302 49.3254-66.9349 118.274-79.8906 125.754-12.9558 7.48005-90.7655 4.35815-148.848 6.3086-5.50755-31.3184-32.7127-54.1574-64.5117-54.1582-36.1777-1e-3 -65.5062 29.3262-65.5059 65.5039 7.5e-4 36.1769 29.3289 65.5034 65.5059 65.502 7.6505-3.3e-4 15.2418-1.34091 22.4297-3.96093 27.3519 51.2759 68.9609 117.102 68.9609 132.062s-41.609 80.7866-68.9609 132.062c-7.18776-2.6207-14.7791-3.96194-22.4297-3.9629-36.1785-9.9e-4 -65.5073 29.3274-65.5059 65.5059 1.8e-4 8.62791 1.68536 16.8567 4.7168 24.4004l204.027-204.027c-0.33122-4.61728-0.50978-9.27683-0.50976-13.9785-3.4e-4 -106.372 86.2317-192.604 192.604-192.604 4.70164 4e-5 9.36128 0.1785 13.9785 0.50977l71.6016-71.6016c-13.7663-23.2656-29.2117-50.3852-43.498-73.3164 14.8454-12.446 23.4202-30.8249 23.4199-50.1973-7.5e-4 -36.1754-29.3265-65.5012-65.502-65.502zm396.123 234.713-204.029 204.031c0.33066 4.61339 0.50783 9.26915 0.50781 13.9668 3.1e-4 106.371-86.2306 192.603-192.602 192.604-4.69834 2e-5 -9.35469-0.17706-13.9688-0.50781l-71.6094 71.6074c13.7656 23.2635 29.2113 50.3798 43.4961 73.3086-14.8461 12.4456-23.4217 30.8246-23.4219 50.1973 7.5e-4 36.1762 29.3277 65.5023 65.5039 65.502 36.1754-7.5e-4 65.5012-29.3265 65.502-65.502 2.8e-4 -19.3724-8.57453-37.7513-23.4199-50.1973 30.7301-49.3254 66.9329-118.272 79.8887-125.752 12.9558-7.48003 90.7655-4.36011 148.848-6.31055 5.50755 31.3184 32.7127 54.1574 64.5117 54.1582 36.177 1e-3 65.5051-29.325 65.5059-65.502 1e-3 -36.1785-29.3274-65.5073-65.5059-65.5059-7.65062 9.6e-4 -15.2419 1.3422-22.4297 3.9629-27.3519-51.2759-68.9609-117.102-68.9609-132.062s41.609-80.7866 68.9609-132.062c7.18788 2.62002 14.7792 3.9606 22.4297 3.96093 36.1769 1e-3 65.5051-29.325 65.5059-65.502 8e-5 -8.62501-1.68361-16.8528-4.71289-24.3945zm-423.182 66.9414c-63.064 11.2205-112.786 60.955-124.002 124.002l124.002-124.002zm178.115 178.127-123.988 123.988c63.0445-11.2216 112.767-60.9438 123.988-123.988z" fill="#fff"/>
 <path d="m897.737 63.9573c-5.355 0-10.71 2.03-14.754 6.094l-818.947 818.946c-8.123 8.087-8.123 21.42 0 29.506l28.418 28.416c8.087 8.113 21.413 8.11 29.496-0.01l818.947-818.948 0.01-0.01c8.097-8.098 8.097-21.39 0-29.488l-0.01-0.01-28.408-28.406-1.75-1.752h-0.39c-3.71-2.836-8.137-4.34-12.612-4.34z" fill="#fff"/>
</svg>
