<svg version="1.1" viewBox="0 0 1e3 1e3" xml:space="preserve" xmlns="http://www.w3.org/2000/svg"><path d="m175.1 98.49c-42.45 0-76.63 34.18-76.63 76.63v647.6c0 42.45 34.18 76.63 76.63 76.63h647.6c42.45 0 76.63-34.18 76.63-76.63v-647.6c0-42.45-34.18-76.63-76.63-76.63zm563.4 122.3c5.339-0.3403 10.61 0.7451 15.2 3.066 9.184 4.638 16.08 13.1 20.68 23.14 9.214 20.09 8.777 49.63-8.397 70.71-0.3309 0.4044-0.6758 0.79-1.035 1.156-128.2 131.2-234.2 282.3-312.6 445-5.211 10.81-17.58 12.56-24.73 3.496l-184.3-233.9 0.2828 0.3464c-16.11-19.41-21.32-44.97-18.18-67.47 3.141-22.5 13.3-42.37 26.35-57.63 13.05-15.26 29.2-26.38 46.93-28.3 17.73-1.927 37.32 8.556 47.97 30.79l-0.9981-1.828 79.89 129.2c83.68-132.7 182-232.5 297.3-312.3 4.873-3.39 10.28-5.159 15.62-5.501z" fill="#fff" stroke-width="1.277"/></svg>
