<svg version="1.1" viewBox="0 0 1e3 1e3" xml:space="preserve" xmlns="http://www.w3.org/2000/svg"><path d="m499.4 59.6a439.8 439.8 0 0 0-439.8 439.8 439.8 439.8 0 0 0 439.8 439.8 439.8 439.8 0 0 0 439.8-439.8 439.8 439.8 0 0 0-439.8-439.8zm153.4 220c5.308-1.5e-4 10.62 3.366 17.32 10.1l37.27 37.27c13.47 13.41 13.47 21.23-2e-3 34.64l-136.9 136.9 137.7 137.7c13.47 13.41 12.71 20.47-0.7616 33.88l-37.26 37.26c-13.41 13.47-20.47 14.23-33.88 0.7616l-137.7-137.7-136.9 136.9c-13.41 13.47-21.23 13.47-34.64 2e-3l-37.27-37.25c-13.47-13.41-13.47-21.23 0-34.64l136.9-136.9-136.9-136.9c-13.47-13.41-13.47-21.23 0-34.64l37.26-37.26c13.41-13.47 21.23-13.47 34.64-2e-3l136.9 136.9 136.9-136.9c6.704-6.732 12.01-10.1 17.32-10.1z" fill="#fff" stroke-width="1.164"/></svg>
