<svg xmlns="http://www.w3.org/2000/svg" viewBox="0 0 1000 1000"><path fill="#fff" d="M426.16 93.559s-159.767 30.198-164.604 164.428c-4.84 134.231-53.772 321.781-106.232 372.371-52.46 50.59-57.773 54.909-72.324 69.992-14.55 15.082-27.38 63.45-2.072 99.12l424.203.058 424.204-.058c25.307-35.67 12.477-84.038-2.072-99.12-14.55-15.083-19.867-19.402-72.327-69.992-52.46-50.59-101.392-238.14-106.231-372.37C743.867 123.756 584.1 93.557 584.1 93.557S570.533 2.692 505.13 2.692c-65.401 0-78.97 90.868-78.97 90.868zM380.778 871.19c.307 68.277 56.072 123.467 124.354 123.467 68.283 0 124.048-55.19 124.355-123.467l-124.354.02z" color="#000" font-family="sans-serif" font-weight="400" overflow="visible" style="line-height:normal;font-variant-ligatures:normal;font-variant-position:normal;font-variant-caps:normal;font-variant-numeric:normal;font-variant-alternates:normal;font-feature-settings:normal;text-indent:0;text-align:start;text-decoration-line:none;text-decoration-style:solid;text-decoration-color:#000;text-transform:none;text-orientation:mixed;white-space:normal;shape-padding:0;isolation:auto;mix-blend-mode:normal;solid-color:#000;solid-opacity:1"/></svg>