<svg viewBox="0 0 1000 1000" xmlns="http://www.w3.org/2000/svg"><path d="M897.422 54.59c-5.355 0-10.71 2.03-14.754 6.094L63.721 879.63c-8.123 8.087-8.123 21.42 0 29.506l28.418 28.416c8.087 8.113 21.413 8.11 29.496-.01l818.947-818.948.01-.01c8.097-8.098 8.097-21.39 0-29.488l-.01-.01-28.408-28.406-1.75-1.752h-.39c-3.71-2.836-8.137-4.34-12.612-4.34zm-397.424 9.224c-94.672 0-230.722 89.185-235.398 218.909-3.377 93.676-15.84 219.658-36.047 306.351L672.8 144.826C623.77 94.12 555.009 63.814 499.998 63.814ZM747.01 437.891 403.19 781.707H919.63s-84.787-49.982-121.567-113.69c-23.559-40.805-40.55-134.172-51.052-230.126ZM379.82 833.02c.298 65.985 54.19 119.322 120.18 119.322 65.99 0 119.885-53.337 120.18-119.322z" fill="#fff"/></svg>