<svg xmlns="http://www.w3.org/2000/svg" viewBox="0 0 1000 1000"><path fill="#fff" d="M505.13 2.691c-65.401 0-78.97 90.868-78.97 90.868s-159.766 30.197-164.603 164.427c-2.749 76.242-19.727 169.676-43.493 245.453l509.932-317.025C683.701 112.404 584.1 93.56 584.1 93.56S570.533 2.69 505.13 2.69zm269.282 435.44L193.178 799.484l311.953.045 424.203-.06c25.308-35.67 12.48-84.037-2.07-99.12-14.55-15.083-19.868-19.402-72.328-69.992-30.799-29.7-60.366-106.618-80.524-192.226zM380.777 871.189c.308 68.277 56.071 123.467 124.354 123.467 68.282 0 124.048-55.19 124.355-123.467l-124.355.022-124.354-.022z" color="#000" font-family="sans-serif" font-weight="400" overflow="visible" style="line-height:normal;font-variant-ligatures:normal;font-variant-position:normal;font-variant-caps:normal;font-variant-numeric:normal;font-variant-alternates:normal;font-feature-settings:normal;text-indent:0;text-align:start;text-decoration-line:none;text-decoration-style:solid;text-decoration-color:#000;text-transform:none;text-orientation:mixed;white-space:normal;shape-padding:0;isolation:auto;mix-blend-mode:normal;solid-color:#000;solid-opacity:1"/><rect width="87.096" height="1141.039" x="618.274" y="-747.688" fill="#fff" ry="24.364" transform="rotate(58.13)"/></svg>