<?xml version="1.0" encoding="UTF-8"?>
<svg version="1.1" viewBox="0 0 1e3 1e3" xmlns="http://www.w3.org/2000/svg">
 <path d="m728.125 3.40234v0.0019531c-71.7674 0-140.634 28.5243-191.381 79.2715-50.7482 50.7471-79.2754 119.615-79.2754 191.383s28.5263 140.636 79.2734 191.383c50.7477 50.7482 119.615 79.2734 191.383 79.2734s140.636-28.5243 191.383-79.2715c50.7482-50.7477 79.2734-119.617 79.2734-191.385s-28.5243-140.636-79.2715-191.383c-50.7477-50.7482-119.617-79.2734-191.385-79.2734zm0 76.9395a193.666 193.666 0 0 1 136.979 56.7383 193.666 193.666 0 0 1 56.7402 136.979 193.65 193.65 0 0 1-27.7051 99.8164l-265.83-265.828a193.65 193.65 0 0 1 99.8164-27.7051zm-166.012 93.9004 265.83 265.83a193.65 193.65 0 0 1-99.8184 27.7031 193.666 193.666 0 0 1-136.977-56.7383 193.666 193.666 0 0 1-56.7402-136.979 193.65 193.65 0 0 1 27.7051-99.8164zm-212.572 228.16c-75.6004 5.9e-4 -136.886 65.5445-136.887 146.396-5.2e-4 80.8532 61.2872 146.398 136.889 146.398 75.6019 1e-3 136.889-65.5428 136.889-146.396-5.2e-4 -80.8533-61.2871-146.398-136.889-146.396l-0.00195-0.00196zm3.56054 316.021c-240.407 0-291.338 125.985-291.338 281.398h582.674c0-155.413-50.9289-281.398-291.336-281.398z" fill="#fff"/>
</svg>
