<?xml version="1.0" encoding="UTF-8"?>
<svg version="1.1" viewBox="0 0 1e3 1e3" xmlns="http://www.w3.org/2000/svg">
 <path d="m945.378 25.3318c-18.8609-18.9449-36.2911-18.9432-55.1528 0.0042l-140.224 140.224-140.226-140.226c-18.8626-18.9449-36.2928-18.9449-55.1562 8.4e-4l-29.2806 29.2805c-18.9466 18.8626-18.9474 36.2953-3e-3 55.1579l140.228 140.227-140.226 140.226c-18.9457 18.8617-18.9474 36.2903-3e-3 55.1537l29.2856 29.2856c18.8617 18.9424 36.292 18.9424 55.1545-3e-3l140.224-140.223 140.226 140.226c18.8651 18.9441 36.297 18.9407 55.1604-3e-3l29.2806-29.2806c18.9441-18.8634 18.9441-36.2953-8.4e-4 -55.1562l-140.228-140.228 140.225-140.225c18.9466-18.8626 18.9474-36.2903 3e-3 -55.1545zm-595.837 377.071c-75.6004 5.9e-4 -136.886 65.544-136.887 146.396-5.2e-4 80.8532 61.2865 146.398 136.888 146.398 75.6019 1e-3 136.89-65.5433 136.89-146.397-5.2e-4 -80.8533-61.2884-146.397-136.89-146.396zm3.56 316.02c-240.407 0-291.337 125.987-291.337 281.4h582.674c0-155.413-50.93-281.4-291.337-281.4z" fill="#fff"/>
</svg>
