<svg viewBox="0 0 474.133 474.133" xmlns="http://www.w3.org/2000/svg"><circle style="display:inline;fill:#4b6eff" cx="237.067" cy="237.067" r="237.067"/><path d="M238.21 78.33c-29.228 0-53.198 8.423-69.524 25.915l-.005.004c-16.092 17.263-23.537 42.107-23.537 72.87a9.537 9.537 0 0 0 9.535 9.536h32.422a9.537 9.537 0 0 0 9.535-9.536c0-17.614 3.405-30.266 9.018-38.485 4.944-7.239 13.873-11.48 30.65-11.48 12.995 0 22.073 3.34 29.037 9.707l.112.1c6.957 6.162 10.137 13.352 10.137 24.14 0 7.174-1.844 13.67-5.84 20.19l-.047.076c-4.112 6.854-9.112 12.994-15.074 18.498a1443.027 1443.027 0 0 1-20.083 18.186l-.132.121c-7.361 6.796-13.69 14.835-18.962 23.99a9.536 9.536 0 0 0-.106.192c-5.294 9.707-8.03 20.312-8.03 31.267v20.978a9.537 9.537 0 0 0 9.535 9.536h34.329a9.537 9.537 0 0 0 9.535-9.536v-17.928c0-6.335 1.664-11.974 5.33-17.69 4.34-6.618 9.426-12.377 15.325-17.368l.024-.02a687.562 687.562 0 0 0 20.5-18.18l.141-.134c7.485-7.197 13.7-16.015 18.688-26.24 5.54-10.818 8.267-22.958 8.267-35.939 0-24.472-8.553-45.492-25.292-60.5-16.716-14.986-39.118-22.27-65.487-22.27Zm-21.36 258.735a9.537 9.537 0 0 0-9.535 9.536v39.668a9.537 9.537 0 0 0 9.536 9.535h34.328a9.537 9.537 0 0 0 9.536-9.535V346.6a9.537 9.537 0 0 0-9.536-9.536z" fill="#fff" style="stroke-width:.916367"/></svg>