<svg version="1.1" viewBox="0 0 1e3 1e3" xmlns="http://www.w3.org/2000/svg"><path d="m500 17.39c-128 0-250.8 50.87-341.3 141.4-90.49 90.49-141.4 213.3-141.4 341.3s50.87 250.8 141.4 341.3c90.49 90.49 213.3 141.4 341.3 141.4s250.8-50.87 341.3-141.4c90.49-90.49 141.4-213.3 141.4-341.3s-50.87-250.8-141.4-341.3c-90.49-90.49-213.3-141.4-341.3-141.4zm0 102.1c101 0 197.7 40.07 269.1 111.5s111.5 168.1 111.5 269.1-40.07 197.7-111.5 269.1-168.1 111.5-269.1 111.5-197.7-40.07-269.1-111.5-111.5-168.1-111.5-269.1 40.07-197.7 111.5-269.1 168.1-111.5 269.1-111.5z" fill="#fff"/></svg>
