<svg viewBox="0 0 1000 1000" xmlns="http://www.w3.org/2000/svg"><path d="M509.008 60.164c-4.916-.06-9.837-.035-14.76.068-44.141.937-88.727 8.543-132.285 23.329C162.839 151.155 38.748 350.703 66.195 559.188 93.643 767.672 265.15 928.307 474.985 942.06c209.832 13.752 400.84-123.12 455.265-326.239l8.69-32.43c3.603-13.454-6.534-26.665-20.463-26.667h-70.114a21.188 21.188 0 0 0-20.463 15.7l-3.994 14.901C782.9 740.368 640.29 842.562 482.188 832.2c-158.101-10.362-286.152-130.296-306.833-287.38-20.68-157.086 71.967-306.073 221.999-357.003 125.047-42.447 259.753-6.375 347.08 86.19l-91.659 91.658c-12.003 12.01-3.58 32.544 13.399 32.668l259.568 1.809c10.674.073 19.345-8.596 19.272-19.27l-1.81-259.57c-.088-12.025-11.113-20.99-22.903-18.625a19.139 19.139 0 0 0-9.764 5.226l-88.242 88.243c-82.22-85.666-195.57-134.527-313.285-135.98h-.002z" fill="#fff"/></svg>