<?xml version="1.0" encoding="UTF-8"?>
<svg version="1.1" viewBox="0 0 1e3 1e3" xmlns="http://www.w3.org/2000/svg"><path d="m509 37.5v2e-3c-5.09-0.0589-10.2-0.0358-15.2 0.0703h-6e-3c-46.4 0.985-93.3 8.99-139 24.5-209 71-340 281-311 500v2e-3c28.8 219 209 388 430 403 213 14 408-120 472-321 4.68-14.6-6.23-29.6-21.6-29.6h-118c-8.97 4.4e-4 -17.1 5.29-20.7 13.5-51.8 117-171 191-302 182-148-9.67-267-121-286-268v-2e-3c-19.3-147 66.8-285 207-333 109-37.1 226-9.85 308 64.8l-75.5 75.5c-12.4 12.5-15 31.2-9.11 45.4s20.8 25.8 38.4 25.9h8e-3l260 1.81h4e-3c23 0.158 42.3-19.1 42.1-42.1v-4e-3l-1.81-260v-8e-3c-0.189-25.8-24.7-45.8-50-40.7-8.08 1.62-15.5 5.59-21.3 11.4l-0.01 0.0098-72.3 72.3c-84.8-79.9-197-125-313-127h-4e-3l-4e-3 -2e-3c-0.0554-6.76e-4 -0.111 6.56e-4 -0.166 0-0.0365-8.8e-5 -0.0729-8.8e-5 -0.109 0z" color="#000000" fill="#fff" stroke-linecap="round" stroke-linejoin="round" style="-inkscape-stroke:none"/></svg>
