<svg viewBox="0 0 1000 1000" xmlns="http://www.w3.org/2000/svg"><path d="M935.259 382.356a24.628 24.628 0 0 0 3.388-24.39l-71.402-281.51c-7.132-17.561-30.598-20.82-42.246-5.867l-219.023 281.28c-11.642 14.956-2.73 36.908 16.043 39.519l290.424.23a24.628 24.628 0 0 0 22.816-9.262z" fill="#fff" style="stroke-width:1.09596"/><path d="M499.425 86.208c-108.241.291-215.475 40.336-298.671 117.33C60.634 333.214 19.833 538.957 99.86 712.289c80.03 173.334 263.095 275.716 452.674 253.167 189.58-22.549 343.522-165.016 380.66-352.284l7.654-38.603c2.354-11.874-5.363-23.409-17.237-25.765l-77.203-15.311c-11.874-2.354-23.409 5.363-25.765 17.237l-7.656 38.603A318.154 318.154 0 0 1 538.06 843.768 318.158 318.158 0 0 1 211.12 660.919a318.156 318.156 0 0 1 72.87-367.441 318.155 318.155 0 0 1 371.975-44.243l34.344 19.21c10.566 5.909 23.922 2.135 29.833-8.43l38.418-68.697c5.908-10.566 2.133-23.92-8.432-29.83l-34.348-19.21v.002c-67.693-37.858-142.296-56.271-216.355-56.072Z" fill="#fff" style="stroke-width:1.09596"/></svg>