<svg xmlns="http://www.w3.org/2000/svg" viewBox="0 0 1000 1000"><path fill="#fff" d="M485.084 52.12c-2.56.002-5.122.028-7.686.075C313.265 55.204 163.611 147.52 87.27 292.844c-13.219 24.396-3.852 55.196 20.718 68.095 24.579 12.904 55.263 3.116 67.83-21.636l-.062.12A349.78 349.78 0 01479.23 152.179c120.337-2.206 232.46 57.492 298.227 157.025l-53.25 30.742h-.002c-16.642 9.612-26.914 27.411-26.914 46.63a53.885 53.885 0 0026.914 46.626h.002l189.566 109.447.002.002a53.885 53.885 0 0053.838-.005 53.883 53.883 0 0026.922-46.622V277.125a53.838 53.838 0 00-6.594-25.813c-14.435-26.414-48.094-35.858-74.166-20.812h-.002l-49.619 28.646c-81.255-126.59-220.672-204.6-371.398-206.97-2.552-.04-5.111-.06-7.672-.057zM61.508 466.388a53.824 53.824 0 00-26.92 7.209 53.883 53.883 0 00-26.922 46.62v218.899a53.84 53.84 0 006.596 25.813c14.435 26.414 48.095 35.86 74.166 20.814v-.002l49.62-28.646c81.256 126.59 220.673 204.6 371.4 206.97a450.176 450.176 0 0015.355-.02c164.133-3.007 313.789-95.324 390.13-240.648 13.22-24.396 3.85-55.196-20.72-68.095-24.579-12.904-55.263-3.116-67.83 21.636l.062-.12a349.776 349.776 0 01-303.472 187.245C402.636 866.27 290.51 806.572 224.744 707.04l53.25-30.742h.002c16.642-9.612 26.914-27.411 26.914-46.629a53.885 53.885 0 00-26.914-46.627h-.002L88.428 473.594v-.002a53.82 53.82 0 00-26.92-7.203z" color="#000" font-family="sans-serif" font-weight="400" overflow="visible" style="line-height:normal;font-variant-ligatures:normal;font-variant-position:normal;font-variant-caps:normal;font-variant-numeric:normal;font-variant-alternates:normal;font-feature-settings:normal;text-indent:0;text-align:start;text-decoration-line:none;text-decoration-style:solid;text-decoration-color:#000;text-transform:none;text-orientation:mixed;white-space:normal;shape-padding:0;isolation:auto;mix-blend-mode:normal;solid-color:#000;solid-opacity:1"/></svg>