<svg viewBox="0 0 1000 1000" xmlns="http://www.w3.org/2000/svg"><path fill="#fff" d="M732.567 0c-22.501-.05-32.874 10.325-32.823 32.828v166.915H532.827c-22.502-.049-32.876 10.325-32.827 32.828v34.854c-.05 22.503 10.325 32.879 32.827 32.83h166.919v166.917c-.05 22.502 10.322 32.876 32.824 32.828h34.86c22.5.048 32.874-10.326 32.825-32.828V300.257h166.917c22.503.047 32.876-10.33 32.828-32.832v-34.854c.048-22.502-10.327-32.877-32.828-32.827h-166.92V32.828C800.302 10.325 789.93-.048 767.427 0ZM107.023 401.038c-42.567 0-76.836 34.457-76.836 77.26v262.61c0 42.803 34.269 77.261 76.836 77.261h23.913l-3.467 180.546 223.587-180.546h155.853c42.567 0 76.836-34.458 76.836-77.26v-262.61c0-42.804-34.269-77.261-76.836-77.261z"/></svg>