<svg viewBox="0 0 1000 1000" xmlns="http://www.w3.org/2000/svg"><path d="M841.576 108.26c17.615 29.855 27.944 64.346 27.944 100.943V617.21c0 23.82-7.308 49.071-18.95 72.11h30.979c57.637 0 104.037-46.658 104.037-104.614V212.873c0-57.957-46.4-104.613-104.037-104.613zm7.637 583.732c-15.105 28.77-37.116 53.696-61.772 66.631-44.996 23.606-83.796 23.533-118.466 23.533h-19.268l204.156 192.248ZM127.514 104.59c-57.637 0-104.038 46.657-104.038 104.614v371.832c0 57.956 46.4 104.614 104.038 104.614h32.38l-4.695 285.086L457.944 685.65h211.03c57.638 0 104.04-46.658 104.04-104.614V209.204c0-57.957-46.402-104.614-104.04-104.614z" fill="#fff"/></svg>