<svg version="1.1" viewBox="0 0 1e3 1e3" xmlns="http://www.w3.org/2000/svg"><path d="m500.6 5.656c-131.3 3.98e-5 -257.2 52.15-350 145-92.83 92.83-145 218.7-145 350 3.98e-5 131.3 52.15 257.2 145 350 92.83 92.83 218.7 145 350 145 131.3-4e-5 257.2-52.15 350-145s145-218.7 145-350c-4e-5 -131.3-52.15-257.2-145-350-92.83-92.83-218.7-145-350-145zm141 188h43.15c15.46 0 30.38 11.75 27.9 25.86l-22.91 130.4 100.2-7e-3c14.33 0 23.32 16.73 20.64 31.95-2.486 14.17-4.974 28.33-7.462 42.5-2.671 15.23-15.97 23.01-30.3 23.01l-100.2 7e-3 -18.61 105.9 92.65-7e-3c14.33 0 23.32 16.73 20.64 31.96-2.486 14.17-4.974 28.33-7.462 42.5-2.671 15.23-15.97 23.01-30.3 23.01l-92.65 7e-3 -22.7 129.2c-2.477 14.11-12.44 25.86-27.9 25.86h-43.15c-15.46 0-30.38-11.75-27.9-25.86l22.7-129.1-127.9 0.0105-22.69 129.1c-2.477 14.11-12.44 25.86-27.9 25.86h-43.15c-15.46 0-30.38-11.75-27.9-25.86l22.69-129.1-100.4 9e-3c-14.33 0-23.32-16.73-20.64-31.96l7.462-42.5c2.671-15.23 15.97-23.01 30.3-23.01l100.4-9e-3 18.61-105.9-92.84 7e-3c-14.33 0-23.32-16.73-20.64-31.95l7.462-42.5c2.671-15.23 15.97-23.01 30.3-23.01l92.84-7e-3 22.92-130.4c2.477-14.11 12.44-25.86 27.9-25.86l-5e-3 -0.0613h43.15c15.46 0 30.38 11.75 27.9 25.86l-22.91 130.4 127.9-9e-3 22.92-130.4c2.477-14.11 12.44-25.86 27.9-25.86zm-67.91 253.8-127.9 9e-3 -18.61 105.9 127.9-0.0105z" fill="#fff"/></svg>
