<svg version="1.1" viewBox="0 0 1e3 1e3" xmlns="http://www.w3.org/2000/svg"><path d="m363.5 10.56c-24.71 0-40.64 18.78-44.6 41.34l-36.64 208.5-148.4 0.01172c-22.9 2e-3 -44.16 12.44-48.43 36.78l-11.93 67.94c-4.275 24.34 10.1 51.08 33 51.08l148.4-0.01171-29.75 169.3-160.5 0.01367c-22.9 2e-3 -44.16 12.44-48.43 36.78l-11.93 67.94c-4.275 24.34 10.1 51.08 33 51.08l160.5-0.01367-36.27 206.4c-3.963 22.56 19.89 41.34 44.6 41.34h68.97c24.71 0 40.64-18.78 44.6-41.34l36.27-206.4 204.5-0.01562-36.28 206.4c-3.963 22.56 19.89 41.34 44.6 41.34h68.97c24.71 0 40.64-18.78 44.6-41.34l36.28-206.5 148.1-0.01171c22.9-2e-3 44.16-12.44 48.43-36.78 3.977-22.65 7.956-45.29 11.93-67.94 4.275-24.34-10.1-51.08-33-51.08l-148.1 0.01172 29.75-169.3 160.2-0.01172c22.9-2e-3 44.16-12.44 48.43-36.78 3.977-22.65 7.956-45.29 11.93-67.94 4.275-24.34-10.1-51.08-33-51.08l-160.2 0.01172 36.63-208.5c3.963-22.56-19.89-41.34-44.6-41.34h-68.97c-24.71 0-40.64 18.78-44.6 41.34l-36.63 208.5-204.5 0.01563 36.63-208.5c3.963-22.56-19.89-41.34-44.6-41.34h-68.97zm254.1 405.6-29.75 169.3-204.5 0.01563 29.75-169.3 204.5-0.01563z" fill="#fff"/></svg>
