<svg version="1.1" viewBox="0 0 1e3 1e3" xmlns="http://www.w3.org/2000/svg"><path d="m320.7 84.1c-21.67 0-35.65 16.48-39.12 36.26l-32.13 182.9-130.2 0.00976c-20.09 2e-3 -38.73 10.91-42.48 32.26l-10.47 59.59c-3.75 21.35 8.857 44.81 28.95 44.81l130.2-0.01172-26.09 148.5-140.8 0.01172c-20.09 2e-3 -38.73 10.91-42.48 32.26l-10.47 59.59c-3.75 21.35 8.857 44.81 28.95 44.81l140.8-0.01172-31.82 181.1c-3.477 19.78 17.45 36.26 39.12 36.26h60.5c21.67 0 35.65-16.47 39.12-36.26l31.82-181.1 179.4-0.01367-31.82 181.1c-3.477 19.78 17.45 36.26 39.12 36.26h60.5c21.67 0 35.64-16.47 39.12-36.26l31.82-181.1 129.9-0.00976c20.09-2e-3 38.73-10.91 42.48-32.26 3.489-19.86 6.98-39.73 10.47-59.59 3.749-21.35-8.859-44.81-28.95-44.81l-129.9 0.00976 26.09-148.5 140.5-0.00977c20.09-2e-3 38.73-10.91 42.48-32.26 3.489-19.86 6.98-39.73 10.47-59.59 3.749-21.35-8.859-44.81-28.95-44.8l-140.5 0.01172 32.13-182.9c3.476-19.78-17.45-36.26-39.12-36.26h-60.5c-21.67 0-35.65 16.48-39.12 36.26l-32.13 182.9-179.4 0.01367 32.13-182.9c3.477-19.78-17.45-36.26-39.12-36.26h-60.5zm131.3 0c6.841 12.43 10.5 27.52 7.748 43.18l-23.89 136 79.39-0.00586 25.1-142.9c3.477-19.78-17.45-36.26-39.12-36.26h-49.23zm318.2 0c6.841 12.43 10.5 27.52 7.748 43.18l-23.88 135.9 79.39-0.00585 25.1-142.8c3.476-19.78-17.45-36.26-39.12-36.26h-49.23zm196.8 219.1-58.9 0.00586c7.909 15.9 10.44 33.54 7.242 51.72-3.489 19.86-6.978 39.73-10.47 59.59-1.648 9.384-5.053 17.82-9.637 25.35l47.76-0.00391c20.09-2e-3 38.73-10.91 42.48-32.26 3.489-19.86 6.98-39.73 10.47-59.59 3.749-21.35-8.86-44.81-28.95-44.8zm-423.3 136.7-26.09 148.5-179.4 0.01563 26.09-148.5 179.4-0.01367zm251.7 39.98-79.39 0.00586-12.04 68.49 79.39-0.00586 12.04-68.49zm-318.2 0.02539-79.39 0.00586-12.04 68.5 79.39-0.00586 12.04-68.5zm429 108.5-58.9 0.0039c7.909 15.9 10.44 33.54 7.242 51.72-3.489 19.86-6.978 39.73-10.47 59.59-1.648 9.383-5.054 17.82-9.637 25.34l47.76-0.0039c20.09-2e-3 38.73-10.91 42.48-32.26 3.489-19.86 6.98-39.73 10.47-59.59 3.749-21.35-8.859-44.81-28.95-44.81zm-161 176.7-79.39 0.00391-26.01 148c-1.76 10.02-5.872 20.03-11.55 29.34h53.04c21.67 0 35.64-16.47 39.12-36.26l24.79-141.1zm-318.2 0.02539-79.39 0.00586-26.01 148c-1.76 10.02-5.87 20.03-11.55 29.34h53.03c21.67 0 35.65-16.47 39.12-36.26l24.79-141.1z" fill="#fff"/></svg>
