<svg version="1.1" viewBox="0 0 1e3 1e3" xmlns="http://www.w3.org/2000/svg"><path transform="matrix(1 0 -.176 1 88.2 0)" d="m319 23.2c-15.8 0-28.6 12.8-28.6 28.6l-7.7e-4 267h-210c-15.8 0-28.6 12.8-28.6 28.6l-6.61e-4 28.6c0 15.8 12.8 28.6 28.6 28.6h210l-4e-4 181h-210c-15.8 0-28.6 12.8-28.6 28.6l-6.62e-4 28.6c0 15.8 12.8 28.6 28.6 28.6h210l8.4e-4 277c0 15.8 12.8 28.6 28.6 28.6h28.6c15.8 0 28.6-12.8 28.6-28.6l-8.5e-4 -277h238l-0.00111 277c0 15.8 12.8 28.6 28.6 28.6h28.6c15.8 0 28.6-12.8 28.6-28.6l-8.4e-4 -277h219c15.8 0 28.6-12.8 28.6-28.6l6.7e-4 -28.6c0-15.8-12.8-28.6-28.6-28.6h-219l4e-4 -181h219c15.8 0 28.6-12.8 28.6-28.6l-0.00129-28.6c0-15.8-12.8-28.6-28.6-28.6h-219l-0.00118-267c0-15.8-12.8-28.6-28.6-28.6h-28.6c-15.8 0-28.6 12.8-28.6 28.6l-7.8e-4 267h-238l7.8e-4 -267c0-15.8-12.8-28.6-28.6-28.6h-28.6zm57.2 381h238l-4e-4 181h-238l4e-4 -181z" fill="#fff"/></svg>
