<svg viewBox="0 0 1000 1000" xmlns="http://www.w3.org/2000/svg"><path d="M345.84 63.494c-19.13 0-34.986 13.59-38.361 32.344L281.623 239.5H138.158c-19.13 0-34.986 13.59-38.361 32.344l-7.322 40.681c-1.697 9.428.285 19.014 6.117 26.577 5.832 7.563 16.567 12.449 27.174 10.93l-2.127.15h138.064L206.035 659.5H62.57c-19.13 0-34.986 13.59-38.361 32.344l-7.322 40.681c-1.688 9.378.593 19.165 6.463 26.323 5.87 7.157 15.136 11.334 24.7 11.334h138.067l-24.9 138.35c-1.688 9.377.593 19.164 6.463 26.322 5.87 7.157 15.136 11.333 24.7 11.333h40.682c9.606 0 18.222-3.54 25.225-9.255 7.004-5.716 12.802-14.27 13.356-24.97l-.217 1.884 25.853-143.664h308.838l-24.9 138.35c-1.688 9.377.593 19.164 6.463 26.322 5.87 7.157 15.136 11.333 24.7 11.333h40.683c19.13 0 34.988-13.587 38.363-32.341l25.853-143.664h143.465c19.13 0 34.988-13.588 38.363-32.342l7.32-40.682c1.697-9.428-.285-19.013-6.116-26.576-5.832-7.563-16.568-12.45-27.174-10.93l2.127-.152H737.199l55.668-309.318h143.465c19.13 0 34.986-13.588 38.361-32.342l7.323-40.682c1.696-9.428-1.094-19.483-6.973-26.138-5.88-6.656-13.834-10.126-21.951-11.352l-1.113-.168H812.787l24.899-138.348c1.687-9.377-.592-19.166-6.461-26.324-5.87-7.158-15.138-11.334-24.704-11.334H765.84c-19.13 0-34.986 13.59-38.361 32.344L701.623 239.5H392.787l24.899-138.348c1.687-9.377-.592-19.166-6.461-26.324-5.87-7.158-15.138-11.334-24.704-11.334zm27.027 286.688h308.836L626.035 659.5H317.2Z" fill="#fff"/></svg>