<svg viewBox="0 0 1000 1000" xmlns="http://www.w3.org/2000/svg"><path fill="#fff" d="M731.341 11.575c-22.207-.05-32.444 10.19-32.394 32.398v164.732H534.213c-22.208-.048-32.447 10.19-32.398 32.398v34.399c-.049 22.208 10.19 32.448 32.398 32.4h164.736v164.734c-.05 22.207 10.187 32.446 32.395 32.398h34.404c22.206.048 32.444-10.191 32.396-32.398V307.904h164.734c22.209.046 32.447-10.194 32.399-32.402v-34.399c.047-22.207-10.192-32.446-32.399-32.397H798.141V43.973c.05-22.208-10.188-32.446-32.396-32.398zM262.73 311.07c-20.25 0-36.059 13.62-39.603 33.314l-17.834 99.094h-98.8c-20.25 0-36.058 13.62-39.603 33.315l-5.507 30.603c-1.786 9.922.21 20.178 6.7 28.594 6.491 8.415 19.033 14.021 30.636 12.36l-3.149.224h90.809l-37.95 210.867h-98.8c-20.251 0-36.058 13.623-39.602 33.315L4.52 823.357c-1.772 9.846.633 20.693 7.162 28.656 6.53 7.964 16.898 12.524 27.024 12.524h90.812l-16.42 91.228c-1.772 9.846.634 20.693 7.163 28.657 6.529 7.963 16.897 12.523 27.023 12.523h30.605c10.186 0 18.748-3.604 25.88-9.424 6.572-5.364 12.38-13.477 13.74-23.976l17.818-99.008h210.152l-16.42 91.228c-1.772 9.848.635 20.696 7.164 28.659 6.53 7.962 16.898 12.521 27.024 12.521h30.605c20.251 0 36.058-13.623 39.602-33.314l17.834-99.094h98.8c20.252 0 36.058-13.623 39.602-33.315l5.51-30.603c1.786-9.923-.212-20.176-6.701-28.592-6.49-8.416-19.03-14.024-30.635-12.361l3.149-.225H570.2l44.285-246.066-15.635-7.178c-20.955-9.618-41.97-27.224-59.718-53.082l-6.616-9.637H311.103l16.418-91.23c1.772-9.846-.633-20.693-7.162-28.657-6.529-7.963-16.898-12.521-27.023-12.521zm29.46 237.504h210.152l-37.95 210.867H254.24Z"/></svg>