<svg viewBox="0 0 1000 1000" xmlns="http://www.w3.org/2000/svg"><path d="M281.5 205.688c-9.539 0-17.271 7.733-17.272 17.271v116.335c.001 9.538 7.734 17.268 17.271 17.269h240.127c15.256 0 27.391 4.362 38.955 13.932.073.061.148.122.222.181 11.535 9.228 15.89 18.278 15.89 32.005 0 13.1-4.576 23.276-16.654 34.146-.073.065-.145.13-.217.197-11.664 10.86-23.394 15.505-38.196 15.505H410.51c-9.536.001-17.267 7.732-17.268 17.269v119.32c0 9.536 7.732 17.266 17.268 17.268h153.623c49.458 0 92.581-21.538 124.578-61.644 16.075-19.84 28.091-41.34 35.732-64.263l.04-.114c7.558-23.214 11.289-47.949 11.289-73.954v-9.696c-.001-.479-.021-.957-.062-1.434l-.745-8.948c-.005-.071-.012-.142-.02-.212-4.799-50.128-24.573-93.495-58.582-127.548-33.617-34.65-75.975-52.885-123.416-52.885Zm126.028 434.767c-9.536.001-17.267 7.732-17.268 17.269v119.319c0 9.537 7.732 17.267 17.268 17.269H529.83c9.536-.001 17.267-7.732 17.268-17.269v-119.32c0-9.536-7.732-17.266-17.268-17.268z" fill="#fff"/></svg>