<svg xmlns="http://www.w3.org/2000/svg" viewBox="0 0 1000 1000"><path fill="#fff" d="M756.492 134.326c-13.04-.028-23.619 10.551-23.59 23.592v160.906H571.994c-13.04-.028-23.62 10.551-23.592 23.592v34.814c-.028 13.042 10.55 23.622 23.592 23.594h160.908V561.73c-.029 13.041 10.55 23.62 23.59 23.592h34.819c13.04.028 23.62-10.55 23.59-23.592V400.824h160.908c13.042.028 23.62-10.552 23.591-23.594v-34.814c.028-13.042-10.55-23.62-23.591-23.592H814.9V157.918c.03-13.042-10.548-23.62-23.59-23.592h-34.818zm-428.084 4.67c-48.863 0-59 67.889-59 67.889S150.044 229.446 146.43 329.732c-3.616 100.287-40.176 240.409-79.37 278.205-39.193 37.797-43.162 41.024-54.033 52.293-10.87 11.269-20.456 47.406-1.548 74.055l316.93.043 316.93-.043c18.909-26.649 9.322-62.786-1.548-74.055-10.87-11.269-14.843-14.496-54.037-52.293-39.194-37.796-75.752-177.918-79.367-278.205-3.615-100.286-122.979-122.847-122.979-122.847s-10.137-67.889-59-67.889zM235.502 787.87c.23 51.01 41.891 92.244 92.906 92.244 51.015 0 92.679-41.233 92.908-92.244l-92.908.014-92.906-.014z" color="#000" font-family="sans-serif" font-weight="400" overflow="visible" style="line-height:normal;font-variant-ligatures:normal;font-variant-position:normal;font-variant-caps:normal;font-variant-numeric:normal;font-variant-alternates:normal;font-feature-settings:normal;text-indent:0;text-align:start;text-decoration-line:none;text-decoration-style:solid;text-decoration-color:#000;text-transform:none;text-orientation:mixed;white-space:normal;shape-padding:0;isolation:auto;mix-blend-mode:normal;solid-color:#000;solid-opacity:1"/></svg>