<svg viewBox="0 0 474.133 474.133" xmlns="http://www.w3.org/2000/svg"><path style="fill:#11da00" d="M437.467 43.951c-4.518.24-9.095 1.482-13.219 3.863-97.578 56.039-180.75 126.088-251.562 219.313l-67.608-90.736.844 1.283c-9.013-15.612-25.59-22.974-40.596-21.621-15.005 1.352-28.669 9.164-39.713 19.879-11.044 10.714-19.642 24.669-22.3 40.472-2.66 15.804 1.753 33.754 15.382 47.383l-.238-.244 155.98 164.242c6.049 6.366 16.516 5.138 20.926-2.455 66.341-114.26 155.99-220.396 264.49-312.504.304-.257.596-.528.876-.812 14.533-14.804 14.902-35.549 7.105-49.659-3.899-7.054-9.732-12.994-17.504-16.251-3.886-1.63-8.345-2.392-12.863-2.153z" transform="matrix(1 0 0 1.20494 0 -49.297)"/></svg>