<svg version="1.1" viewBox="0 0 1e3 1e3" xmlns="http://www.w3.org/2000/svg"><path d="m212 84.6c-64 0-116 51.8-116 116v452c0 64.3 51.5 116 116 116h36l-5.21 230 270-230h301c64 0 116-51.8 116-116v-452c0-64.3-51.5-116-116-116zm420 126h18.2c9.42 0 18.5 3.9 24.8 11.6h2e-3v2e-3c6.23 7.59 8.26 17.1 6.63 26.2l-7.43 41.2h65.3l1.81 0.272c6.83 1.03 14.6 4.25 20.5 10.9 6.65 7.53 9.07 16.8 7.28 26.6l-3.29 18.2v2e-3c-2.96 16.5-17.7 29-34.6 29h-72.3l-18.7 104h63.1c10.4-0.524 19.4 3.86 25.6 11.9l2e-3 2e-3c5.84 7.58 7.7 17.2 6.14 25.9v2e-3l-3.29 18.2h-2e-3c-2.96 16.5-17.7 29-34.6 29h-72.3l-8.98 50c-2.96 16.5-17.7 29-34.6 29h-18.2c-9.42 0-18.5-3.9-24.8-11.6h-2e-3c-6.23-7.59-8.26-17.1-6.63-26.2l7.43-41.2h-103l-8.98 49.9c-1.37 9.24-6.58 16.5-12.1 21-5.88 4.8-13.9 8.13-22.5 8.13h-18.2c-9.42 0-18.5-3.9-24.8-11.6l-2e-3 -2e-3c-6.23-7.59-8.26-17.1-6.63-26.2l7.43-41.2h-61.7c-9.42 0-18.5-3.9-24.8-11.6h-2e-3v-2e-3c-6.23-7.59-8.26-17.1-6.63-26.2l3.29-18.2c2.96-16.5 17.7-29 34.6-29h70.5l18.7-104h-61.4c-10.4 0.529-19.4-3.85-25.6-11.9-5.85-7.59-7.7-17.2-6.15-25.9l3.29-18.2c2.96-16.5 17.7-29 34.6-29h70.5l8.98-50c2.96-16.5 17.7-29 34.6-29h18.2c9.42 0 18.5 3.9 24.8 11.6h2e-3v2e-3c6.23 7.59 8.26 17.1 6.63 26.2l-7.43 41.2h103l8.98-50c2.96-16.5 17.7-29 34.6-29zm-161 164-18.7 104h103l18.7-104z" fill="#fff"/></svg>
