<svg version="1.1" viewBox="0 0 1e3 1e3" xmlns="http://www.w3.org/2000/svg"><path d="m212 84.6c-64 0-116 51.8-116 116v452c0 64.3 51.5 116 116 116h36l-5.21 230 270-230h301c64 0 116-51.8 116-116v-452c0-64.3-51.5-116-116-116zm437 94h20.9c10.8 0 21.2 4.47 28.4 13.3h2e-3v2e-3c7.14 8.7 9.47 19.6 7.6 30l-8.52 47.3h74.9l2.08 0.312c7.83 1.18 16.7 4.87 23.5 12.5 7.63 8.64 10.4 19.3 8.35 30.5l-3.77 20.9v2e-3c-3.4 18.9-20.3 33.3-39.7 33.3h-82.9l-21.4 119h72.4c11.9-0.601 22.3 4.43 29.4 13.6l2e-3 2e-3c6.7 8.69 8.83 19.7 7.04 29.7v2e-3l-3.77 20.9h-2e-3c-3.4 18.9-20.3 33.3-39.7 33.3h-82.9l-10.3 57.3c-3.4 18.9-20.3 33.3-39.7 33.3h-20.9c-10.8 0-21.2-4.47-28.4-13.3h-2e-3c-7.14-8.7-9.47-19.6-7.6-30l8.52-47.3h-118l-10.3 57.2c-1.57 10.6-7.55 18.9-13.9 24.1-6.74 5.5-15.9 9.33-25.8 9.33h-20.9c-10.8 0-21.2-4.47-28.4-13.3l-2e-3 -2e-3c-7.14-8.7-9.47-19.6-7.6-30l8.52-47.3h-70.8c-10.8 0-21.2-4.47-28.4-13.3h-2e-3v-2e-3c-7.14-8.7-9.47-19.6-7.6-30l3.77-20.9c3.4-18.9 20.3-33.3 39.7-33.3h80.9l21.4-119h-70.4c-11.9 0.607-22.3-4.42-29.4-13.6-6.71-8.7-8.83-19.7-7.05-29.7l3.77-20.9c3.4-18.9 20.3-33.3 39.7-33.3h80.9l10.3-57.3c3.4-18.9 20.3-33.3 39.7-33.3h20.9c10.8 0 21.2 4.47 28.4 13.3h2e-3v2e-3c7.14 8.7 9.47 19.6 7.6 30l-8.52 47.3h118l10.3-57.3c3.4-18.9 20.3-33.3 39.7-33.3zm-185 188-21.4 119h118l21.4-119z" fill="#fff"/></svg>
