<svg version="1.1" viewBox="0 0 1e3 1e3" xmlns="http://www.w3.org/2000/svg"><path d="m449 4.15c-66.3 0-121 47.6-121 106v42.8h-97.9c-60.2 0-169 62.5-169 115v21.5h874v-21.5c0-52.8-108-115-169-115h-98.2v-42.8c0-58.1-54.4-106-121-106zm0 75.7h98.8c32.2 0 37.1 1.86 37.1 30.1v42.8h-173v-42.8c0-28.2 4.94-30.1 37.1-30.1zm-345 273 50.8 552c0 61.7 36.6 91.3 107 91.3h474c70.4 0 102-29.8 107-91.3l50.8-552zm394 78.8c21.2-7e-5 38.4 15.1 38.4 33.7v405c1e-4 18.6-17.2 33.7-38.4 33.7-21.2 9e-5 -38.4-15.1-38.4-33.7v-405c-7e-5 -18.6 17.2-33.7 38.4-33.7zm-208 0.0391c21.2-0.896 39.2 13.4 40.2 32l5.4 405c1.02 18.6-15.3 34.3-36.5 35.2-21.2 0.895-39.2-13.4-40.2-32l-5.4-405c-1.02-18.6 15.3-34.3 36.5-35.2 1e-5 0 0 4e-5 0 4e-5zm408 0c21.2 0.895 37.5 16.7 36.5 35.2l-5.4 405c-1.02 18.6-19 32.9-40.2 32-21.2-0.896-37.5-16.7-36.5-35.2l5.4-405c1.02-18.6 19-32.9 40.2-32 1e-5 0 0 4e-5 0 4e-5z" fill="#F26161" stroke-width="1.13"/></svg>
