<svg viewBox="0 0 1000 1000" xmlns="http://www.w3.org/2000/svg"><path d="M500 0a499.999 499.999 0 0 0-353.553 146.447 500 500 0 1 0 707.106 707.106A500 500 0 0 0 500 0Zm-.32 185.075c18.262 0 24.28 11.403 25.315 12.44L679.12 366.266c11.324 11.801 11.324 30.86 0 42.582l-40.99.758c-52.16 0-18.64-.037-79.242-.07V558.41c0 16.03-6.518 25.109-21.91 25.109H463.02c-15.391 0-21.91-9-21.91-25.109V409.536c-42.674 0-38.705.068-79.24.068l-40.912-.679c-11.323-11.803-11.323-30.862 0-42.584l154.047-168.826c.958-1.036 6.573-12.44 24.675-12.44zM337.005 655.36h325.99c16.623 0 25.077 5.986 25.077 22.609v56.15c0 16.622-8.454 22.608-25.077 22.608h-325.99c-16.623 0-25.077-5.986-25.077-22.609v-56.15c0-16.622 8.454-22.608 25.077-22.608z" fill="#fff"/></svg>