<svg xmlns="http://www.w3.org/2000/svg" viewBox="0 0 1000 1000"><path fill="#fff" d="M500 0a500 500 0 100 1000A500 500 0 00500 0zm-.26 156.996c14.817 0 19.7 9.252 20.54 10.094l125.05 162.878c9.187 9.575 9.187 25.038 0 34.549l-33.257.615c-42.32 0-21.614-.03-70.783-.056v193.58c0 13.006-10.157 23.617-22.645 23.617h-37.29c-12.488 0-22.645-10.546-22.645-23.616v-193.58c-34.624 0-37.893.054-70.782.054l-33.193-.55c-9.187-9.576-9.187-25.04 0-34.551L479.72 167.09c.777-.841 5.334-10.094 20.021-10.094zM201.612 523.04h69.292c12.487 0 22.644 10.546 22.644 23.616v88.782c0 26.074 10.251 33.166 35.29 33.166h342.324c25.039 0 35.29-7.17 35.29-33.166v-88.782c0-13.004 10.157-23.616 22.644-23.616h69.292c12.487 0 22.644 10.546 22.644 23.616v163.948c0 52.136-22.567 62.4-72.58 62.4H251.548c-50.013 0-72.58-10.251-72.58-62.4V546.657c0-13.004 10.157-23.616 22.644-23.616z"/></svg>