<?xml version="1.0" encoding="UTF-8"?>
<svg version="1.1" viewBox="0 0 1e3 1e3" xmlns="http://www.w3.org/2000/svg">
 <path d="m984.545 217.076-504.066 504.066 39.3027 13.2188-82.4668 74.5644-32.8203-11.7988-63.4941 63.4961 117.26 36.7891c9.12074 2.86127 19.0741 0.61793 26.0859-5.87891l133.879-124.066 317.043 106.625c23.8908 8.83686 49.273-8.83589 49.2773-34.3086v-622.707zm-410.064 11.3984-312.223 107.496v204.727l312.223-312.223zm-518.684 107c-19.7024 0.0922-36.3377 16.1276-36.3398 36.5918l-0.001953 239.828c0.0039 22.9104 20.8251 40.1782 43.3418 35.9492l92.3789-0.06445 41.209-41.209v-270.6h-134.389c-2.08878-0.34441-4.16104-0.50562-6.19922-0.49609z" fill="#fff" style="font-feature-settings:normal;font-variant-alternates:normal;font-variant-caps:normal;font-variant-east-asian:normal;font-variant-ligatures:normal;font-variant-numeric:normal;font-variant-position:normal;font-variation-settings:normal;inline-size:0;isolation:auto;mix-blend-mode:normal;shape-margin:0;shape-padding:0;text-decoration-color:#000000;text-decoration-line:none;text-decoration-style:solid;text-indent:0;text-orientation:mixed;text-transform:none;white-space:normal"/>
 <path d="m897.276 55.7606c-5.355 0-10.71 2.03-14.754 6.094l-818.947 818.946c-8.123 8.087-8.123 21.42 0 29.506l28.418 28.416c8.087 8.113 21.413 8.11 29.496-0.01l818.947-818.948 0.01-0.01c8.097-8.098 8.097-21.39 0-29.488l-0.01-0.01-28.408-28.406-1.75-1.752h-0.39c-3.71-2.836-8.137-4.34-12.612-4.34z" fill="#fff"/>
</svg>
