<?xml version="1.0" encoding="UTF-8"?>
<svg version="1.1" viewBox="0 0 1e3 1e3" xmlns="http://www.w3.org/2000/svg">
 <path d="m951.649 101.929c-9.05064 0-12.4302 0.86149-16.4191 2.34181l2e-3 2e-3 -672.975 231.699v310.464c-0.19799 0.82205-0.35672 1.65305-0.47568 2.49019l-22.1354 156.519c-1.82452 12.912 5.96339 25.2475 18.4051 29.1526l200.208 62.8161c9.12074 2.86127 19.0753 0.61793 26.0872-5.87891l133.877-124.067 317.044 106.625c23.8908 8.83686 49.2732-8.8372 49.2776-34.3099v-701.214c-3e-3 -20.3098-20.6151-36.7297-32.8971-36.6395zm-895.851 233.546c-19.7024 0.0922-36.3386 16.1266-36.3407 36.5907l-0.0021 239.828c0.0039 22.9104 20.825 40.1793 43.3417 35.9504l133.589-0.0914v-311.782h-134.39c-2.08878-0.34441-4.15989-0.50554-6.19806-0.49601zm290.138 340.42 173.845 58.4659-82.4653 74.5658-104.229-37.4689z" fill="#fff" style="font-feature-settings:normal;font-variant-alternates:normal;font-variant-caps:normal;font-variant-east-asian:normal;font-variant-ligatures:normal;font-variant-numeric:normal;font-variant-position:normal;font-variation-settings:normal;inline-size:0;isolation:auto;mix-blend-mode:normal;shape-margin:0;shape-padding:0;text-decoration-color:#000000;text-decoration-line:none;text-decoration-style:solid;text-indent:0;text-orientation:mixed;text-transform:none;white-space:normal"/>
</svg>
