<?xml version="1.0" encoding="UTF-8"?>
<svg version="1.1" viewBox="0 0 1e3 1e3" xml:space="preserve" xmlns="http://www.w3.org/2000/svg"><path d="m634.23 267.05v465.81c90.155-42.499 147.9-132.98 148.49-232.65-0.38582-99.855-58.167-190.59-148.49-233.17zm0-227.63v111.12c152.58 48.16 256.33 189.67 256.36 349.67-0.0575 159.97-103.8 301.46-256.36 349.61v110.8c213.14-50.973 363.67-241.25 364.22-460.41-0.37032-219.3-150.94-409.79-364.22-460.8zm-132.54-19.439c-1.1753 0.28346-2.3152 0.91509-3.3856 1.9572l-317.03 308.63h-158.07c-11.952 0-21.573 9.6217-21.573 21.573v296.11c0 11.952 9.6217 21.573 21.573 21.573h157.02l318.08 309.64c8.5638 8.3368 21.573-9.6218 21.573-21.573v-914.39c0-10.458-9.9607-25.515-18.187-23.53z" fill="#fff" stroke-width="1.0787"/></svg>
