<?xml version="1.0" encoding="UTF-8"?>
<svg version="1.1" viewBox="0 0 1e3 1e3" xml:space="preserve" xmlns="http://www.w3.org/2000/svg"><path d="m900 60a40 40 0 0 0-28.285 11.715l-800 800a40 40 0 0 0 0 56.57 40 40 0 0 0 56.57 0l800-800a40 40 0 0 0 0-56.57 40 40 0 0 0-28.285-11.715zm-398.31-40.029v0.0098c-1.1753 0.28346-2.3144 0.91492-3.3848 1.957l-317.03 308.63h-158.07c-11.952 0-21.574 9.621-21.574 21.572v296.11c0 11.952 9.6229 21.572 21.574 21.572h157.02l7.9043 7.6953 331.75-331.75v-302.27c0-10.458-9.9612-25.516-18.188-23.531zm132.54 19.439v111.13c19.979 6.306 39.061 14.298 57.242 23.637l78.758-78.758c-41.331-25.116-86.981-44.284-136-56.008zm275.43 185.28-77.428 77.428c37.117 57.742 58.346 125.99 58.359 198.09-0.0575 159.97-103.8 301.46-256.36 349.61v110.8c213.14-50.973 363.67-241.25 364.22-460.41-0.17179-101.73-32.708-197.23-88.791-275.52zm-156.54 156.54-118.89 118.89v232.74c90.155-42.499 147.9-132.98 148.49-232.65-0.16345-42.303-10.724-82.919-29.6-118.98zm-233.24 233.24-195.59 195.59 174.02 169.4c8.5638 8.3368 21.572-9.623 21.572-21.574z" fill="#fff"/></svg>
