<svg viewBox="0 0 474.133 474.133" xmlns="http://www.w3.org/2000/svg"><path style="fill:#ffbe4d" d="M237.067 0c-11.18 0-21.509 6.747-27.1 17.701L4.19 421.018c-5.588 10.957-5.586 24.454.003 35.409 5.59 10.955 15.918 17.704 27.097 17.706h411.554c11.178-.002 21.507-6.751 27.097-17.706 5.589-10.955 5.59-24.452.003-35.409L264.167 17.701C258.576 6.747 248.246 0 237.067 0Z"/><path style="fill:#000" d="M219.965 150.91a8 8 0 0 0-8 8v95.746c0 .157.005.314.014.47l3.07 52.185a8 8 0 0 0 7.986 7.53h23.68a8 8 0 0 0 7.988-7.552l2.922-52.185a7.76 7.76 0 0 0 .014-.448V158.91a8 8 0 0 0-8-8zm0 209.688a8 8 0 0 0-8 8v37.129a8 8 0 0 0 8 8h29.674a8 8 0 0 0 8-8v-37.13a8 8 0 0 0-8-8z"/></svg>