<svg xmlns="http://www.w3.org/2000/svg" viewBox="0 0 512 512"><path fill="#8e8cc4" fill-opacity=".049" d="M100.012 86.41l50.796 79.644c-47.087 29.58-69.34 71.313-83.528 116.907-47.011 4.47-30.318-87.328-33.532-108.576 0 0-59.508 119.611-16.617 153.242 30.691 24.065 82.645 33.38 82.645 33.38L33.748 444.77c44.933 15.125 144.872 16.686 144.872 16.686l57.33-89.247h41.513l57.323 89.255s99.955-1.569 144.88-16.694l-66.028-83.764s51.688-9.656 82.637-33.38c39.7-30.423-16.61-153.24-16.61-153.24-3.198 21.247 13.488 113.046-33.53 108.575-14.174-45.602-36.434-87.328-83.537-116.9l50.797-79.659c-19.809-20.257-45.412-35.412-67.482-31.84l-76.514 94.806H244l-76.506-94.814c-22.047-3.564-47.651 11.59-67.474 31.856zm82.919 131.232c12.74 23.76 36.326 62.113 36.326 62.113s-20.31.571-39.395.571c-19.093 0-32.306-.99-32.306-15.23 0-14.234 6.504-47.454 35.375-47.454zm146.79 0c29.275 0 35.375 33.22 35.375 47.46 0 14.242-12.055 15.224-32.305 15.224s-39.403-.57-39.403-.57 23.182-38.353 36.334-62.114z"/></svg>