<svg viewBox="0 0 512 512" xmlns="http://www.w3.org/2000/svg"><path d="M159.201 52.324c-19.942.79-41.713 14.61-59.059 32.342h-.008l50.797 79.645c-47.087 29.58-69.341 71.312-83.529 116.906-47.011 4.47-14.317-87.328-17.531-108.576 0 0-75.508 119.611-32.617 153.242 30.69 24.065 82.644 33.38 82.644 33.38l-66.027 83.763c44.933 15.125 144.87 16.685 144.87 16.685l57.33-89.246h40.103l57.33 89.246s99.938-1.56 144.87-16.685l-66.026-83.762s51.953-9.316 82.644-33.381c42.891-33.631-34.617-153.242-34.617-153.242-3.214 21.248 31.48 113.046-15.531 108.576-14.188-45.594-36.443-87.326-83.53-116.906l50.797-79.645h-.008c-17.345-17.733-39.117-31.552-59.058-32.342-2.85-.112-5.66.041-8.416.487l-76.506 94.812h-24l-76.506-94.812a42.195 42.195 0 0 0-8.416-.487zM189.055 223.9c35.389 0 30.326 54.113 30.326 54.113s-20.312.57-39.397.57c-19.093 0-32.304-.99-32.304-15.23 0-14.234 5.985-39.453 41.375-39.453zm134.136 0c35.39 0 41.375 25.219 41.375 39.453 0 14.24-13.211 15.23-32.304 15.23-19.085 0-39.397-.57-39.397-.57s-5.063-54.113 30.326-54.113z" style="fill:#c1c1d6;fill-opacity:.02"/></svg>